<svg id="svg" version="1.1" xmlns="http://www.w3.org/2000/svg" xmlns:xlink="http://www.w3.org/1999/xlink" width="400" height="400" viewBox="0, 0, 400,400"><g id="svgg"><path id="path0" d="M80.667 161.094 C 71.389 163.104,71.547 177.765,80.863 179.339 C 87.479 180.456,92.224 176.592,92.231 170.083 C 92.238 163.470,87.326 159.652,80.667 161.094 M347.417 163.029 C 346.408 163.197,344.496 163.521,343.167 163.750 C 341.837 163.979,339.438 164.391,337.833 164.665 C 336.229 164.939,334.448 165.248,333.875 165.351 L 332.833 165.538 332.833 202.269 L 332.833 239.000 341.083 239.000 L 349.333 239.000 349.333 222.258 L 349.333 205.516 349.811 204.095 C 352.465 196.197,362.065 195.014,362.075 202.583 C 362.081 206.472,357.624 210.405,352.500 211.032 C 350.374 211.293,355.268 224.608,361.630 235.875 L 363.395 239.000 372.781 239.000 C 377.943 239.000,382.167 238.962,382.167 238.916 C 382.167 238.870,381.067 237.089,379.723 234.958 C 378.379 232.827,376.554 229.921,375.668 228.500 C 374.782 227.079,372.645 223.667,370.919 220.917 C 367.205 215.000,367.410 215.523,368.610 215.007 C 381.144 209.619,382.053 191.450,370.027 186.697 C 363.777 184.228,353.155 185.914,349.846 189.902 C 349.725 190.047,349.560 190.167,349.481 190.167 C 349.399 190.167,349.316 184.104,349.293 176.446 L 349.250 162.724 347.417 163.029 M23.167 203.417 L 23.167 239.000 31.833 239.000 L 40.500 239.000 40.500 224.083 L 40.500 209.167 51.163 209.167 L 61.827 209.167 61.916 208.792 C 61.965 208.585,62.411 205.976,62.907 202.993 C 63.404 200.010,63.861 197.366,63.923 197.118 L 64.036 196.667 52.268 196.667 L 40.500 196.667 40.500 188.500 L 40.500 180.333 54.500 180.333 L 68.500 180.333 68.500 174.083 L 68.500 167.833 45.833 167.833 L 23.167 167.833 23.167 203.417 M143.833 174.083 L 143.833 180.333 152.250 180.333 L 160.667 180.333 160.667 209.667 L 160.667 239.000 169.333 239.000 L 178.000 239.000 178.000 209.667 L 178.000 180.333 186.250 180.333 C 192.738 180.333,194.500 180.289,194.502 180.125 C 194.503 179.926,194.706 178.735,195.501 174.250 C 195.696 173.150,196.026 171.256,196.235 170.042 L 196.615 167.833 170.224 167.833 L 143.833 167.833 143.833 174.083 M306.958 185.421 C 293.615 187.364,285.580 198.069,285.621 213.847 C 285.665 231.081,293.973 239.947,310.000 239.863 C 315.016 239.837,319.324 239.004,323.667 237.223 C 325.598 236.431,325.547 236.516,325.070 234.833 C 324.695 233.511,324.540 232.957,323.666 229.792 C 322.878 226.937,322.488 225.599,322.426 225.537 C 322.389 225.500,321.509 225.736,320.471 226.061 C 312.210 228.648,307.681 227.576,305.079 222.417 C 302.454 217.210,302.543 206.265,305.251 201.417 C 307.786 196.877,313.469 196.084,317.113 199.762 L 318.310 200.969 320.019 199.193 C 320.960 198.216,322.804 196.318,324.119 194.974 L 326.509 192.532 325.138 191.084 C 320.553 186.240,314.431 184.333,306.958 185.421 M200.667 185.837 C 200.162 186.004,199.037 186.366,198.167 186.640 C 190.621 189.021,189.142 189.496,189.003 189.581 C 188.916 189.635,189.191 190.183,189.615 190.798 C 191.634 193.728,193.156 198.249,193.919 203.583 C 194.363 206.687,194.491 211.552,194.495 225.542 L 194.500 239.000 202.745 239.000 L 210.990 239.000 211.040 224.292 C 211.096 207.804,211.015 208.922,212.357 206.181 C 214.576 201.648,218.880 200.168,223.835 202.234 C 224.081 202.336,224.576 200.687,226.760 192.500 C 227.335 190.342,228.201 187.116,228.284 186.817 C 228.440 186.260,224.522 185.500,221.496 185.500 C 215.138 185.500,210.508 188.211,207.412 193.748 C 206.666 195.081,206.772 195.115,206.246 193.375 C 205.479 190.838,204.194 188.272,202.697 186.292 C 202.035 185.416,201.977 185.403,200.667 185.837 M249.889 185.837 C 236.516 188.214,228.577 198.647,228.586 213.833 C 228.596 230.571,235.604 239.577,248.583 239.531 C 255.813 239.506,259.677 236.882,262.866 229.833 L 263.130 229.250 263.236 229.750 C 263.966 233.195,265.623 236.823,267.435 238.946 L 268.171 239.809 269.377 239.417 C 270.041 239.202,271.896 238.614,273.500 238.112 C 275.104 237.609,277.522 236.850,278.874 236.425 L 281.331 235.652 280.518 234.451 C 278.204 231.035,276.760 226.460,275.980 220.083 C 275.840 218.946,275.745 213.661,275.679 203.430 L 275.583 188.444 272.667 187.811 C 263.007 185.714,254.655 184.990,249.889 185.837 M74.876 208.042 C 74.932 232.492,74.833 230.508,76.129 233.154 C 78.879 238.769,86.978 240.850,95.500 238.132 C 96.798 237.719,98.212 237.138,98.469 236.913 C 98.560 236.833,97.133 226.922,97.010 226.788 C 96.946 226.717,96.338 226.738,95.659 226.834 C 93.988 227.071,93.084 226.915,92.376 226.266 C 91.312 225.291,91.339 225.846,91.336 204.958 L 91.333 186.167 83.080 186.167 L 74.826 186.167 74.876 208.042 M100.333 186.661 C 100.333 186.749,100.735 187.443,101.225 188.203 C 101.716 188.962,103.829 192.283,105.920 195.583 C 108.012 198.883,111.101 203.746,112.786 206.389 L 115.849 211.196 115.533 211.723 C 115.360 212.013,113.884 214.313,112.255 216.833 C 108.835 222.123,109.145 221.643,105.166 227.833 C 103.487 230.446,101.195 234.008,100.074 235.750 L 98.036 238.917 107.060 238.960 C 115.511 239.001,116.097 238.985,116.301 238.710 C 117.029 237.726,123.977 225.892,124.832 224.178 L 125.866 222.106 127.068 224.428 C 127.728 225.705,129.396 228.700,130.773 231.083 C 132.150 233.467,133.717 236.194,134.255 237.143 C 134.794 238.093,135.313 238.900,135.409 238.937 C 135.505 238.973,139.655 238.984,144.632 238.960 L 153.681 238.917 150.108 233.083 C 148.142 229.875,144.322 223.651,141.619 219.253 L 136.704 211.256 137.609 210.253 C 142.463 204.876,144.520 201.987,147.094 196.926 C 149.338 192.513,151.289 187.269,150.913 186.661 C 150.851 186.561,147.596 186.500,142.335 186.500 L 133.857 186.500 133.658 187.458 C 133.044 190.416,130.432 196.435,128.046 200.388 C 127.382 201.488,127.364 201.482,126.746 200.000 C 126.498 199.404,126.070 198.471,125.795 197.926 C 125.187 196.719,119.011 186.799,118.761 186.628 C 118.486 186.438,100.333 186.471,100.333 186.661 M255.946 197.676 C 256.663 197.772,257.681 197.970,258.208 198.114 L 259.167 198.377 259.167 205.513 C 259.167 216.731,258.301 221.134,255.317 225.086 C 252.892 228.298,249.181 228.203,247.521 224.887 C 245.739 221.328,245.445 208.862,247.021 203.711 C 248.079 200.253,250.319 198.118,253.333 197.694 C 253.929 197.610,254.467 197.532,254.530 197.521 C 254.592 197.509,255.229 197.579,255.946 197.676 " stroke="none" fill="#3bbbfb" fill-rule="evenodd"></path><path id="path1" d="M189.000 1.167 C 189.000 1.271,187.944 1.333,186.167 1.333 C 184.389 1.333,183.333 1.395,183.333 1.500 C 183.333 1.603,182.503 1.667,181.177 1.667 C 179.918 1.667,178.977 1.736,178.917 1.833 C 178.860 1.925,178.185 2.000,177.417 2.000 C 176.648 2.000,175.973 2.075,175.917 2.167 C 175.860 2.258,175.232 2.333,174.522 2.333 C 173.644 2.333,173.127 2.412,172.907 2.578 C 172.685 2.746,172.154 2.824,171.218 2.828 C 170.467 2.831,169.807 2.908,169.750 3.000 C 169.693 3.092,169.254 3.167,168.773 3.167 C 168.293 3.167,167.823 3.244,167.728 3.339 C 167.633 3.434,167.187 3.517,166.736 3.525 C 166.285 3.532,165.842 3.597,165.750 3.669 C 165.658 3.740,165.208 3.839,164.750 3.889 C 162.920 4.086,161.581 4.339,161.528 4.499 C 161.497 4.591,161.064 4.667,160.564 4.667 C 159.911 4.667,159.629 4.737,159.560 4.917 C 159.495 5.086,159.229 5.167,158.732 5.167 C 158.329 5.167,158.000 5.242,158.000 5.333 C 158.000 5.425,157.667 5.500,157.260 5.500 C 156.853 5.500,156.473 5.575,156.417 5.667 C 156.360 5.758,155.985 5.833,155.583 5.833 C 155.182 5.833,154.807 5.908,154.750 6.000 C 154.693 6.092,154.318 6.167,153.917 6.167 C 153.515 6.167,153.140 6.242,153.083 6.333 C 153.027 6.425,152.645 6.500,152.235 6.500 C 151.726 6.500,151.459 6.579,151.394 6.750 C 151.331 6.912,151.073 7.000,150.659 7.000 C 150.307 7.000,149.973 7.075,149.917 7.167 C 149.860 7.258,149.556 7.333,149.240 7.333 C 148.925 7.333,148.667 7.408,148.667 7.500 C 148.667 7.592,148.403 7.667,148.081 7.667 C 147.759 7.667,147.365 7.737,147.206 7.822 C 147.047 7.908,146.435 8.076,145.846 8.196 C 145.257 8.317,144.681 8.509,144.566 8.624 C 144.451 8.739,144.089 8.833,143.762 8.833 C 143.435 8.833,143.167 8.908,143.167 9.000 C 143.167 9.092,142.966 9.167,142.720 9.167 C 142.265 9.167,141.317 9.423,140.794 9.687 C 140.635 9.768,140.359 9.833,140.181 9.833 C 140.003 9.833,139.756 9.935,139.631 10.059 C 139.507 10.183,139.164 10.333,138.869 10.392 C 138.575 10.452,138.102 10.547,137.820 10.604 C 137.538 10.661,137.267 10.811,137.219 10.938 C 137.168 11.070,136.892 11.167,136.566 11.167 C 136.254 11.167,136.000 11.242,136.000 11.333 C 136.000 11.425,135.779 11.500,135.510 11.500 C 135.240 11.500,134.973 11.575,134.917 11.667 C 134.860 11.758,134.598 11.833,134.333 11.833 C 134.069 11.833,133.807 11.908,133.750 12.000 C 133.693 12.092,133.431 12.167,133.167 12.167 C 132.902 12.167,132.640 12.242,132.583 12.333 C 132.527 12.425,132.332 12.500,132.152 12.500 C 131.971 12.500,131.780 12.613,131.727 12.750 C 131.672 12.893,131.424 13.000,131.149 13.000 C 130.884 13.000,130.667 13.075,130.667 13.167 C 130.667 13.258,130.484 13.333,130.260 13.333 C 130.036 13.333,129.807 13.408,129.750 13.500 C 129.693 13.592,129.464 13.667,129.240 13.667 C 129.016 13.667,128.833 13.742,128.833 13.833 C 128.833 13.925,128.705 14.000,128.547 14.000 C 128.129 14.000,126.833 14.521,126.833 14.689 C 126.833 14.769,126.650 14.833,126.427 14.833 C 126.203 14.833,125.973 14.908,125.917 15.000 C 125.860 15.092,125.666 15.167,125.485 15.167 C 125.304 15.167,125.113 15.279,125.060 15.417 C 125.001 15.571,124.748 15.667,124.399 15.667 C 124.088 15.667,123.833 15.742,123.833 15.833 C 123.833 15.925,123.695 16.000,123.526 16.000 C 123.356 16.000,123.000 16.108,122.734 16.240 C 122.468 16.372,122.044 16.557,121.792 16.652 C 121.540 16.747,121.333 16.902,121.333 16.996 C 121.333 17.090,121.146 17.167,120.917 17.167 C 120.688 17.167,120.500 17.242,120.500 17.333 C 120.500 17.425,120.313 17.500,120.083 17.500 C 119.854 17.500,119.667 17.575,119.667 17.667 C 119.667 17.758,119.516 17.833,119.331 17.833 C 119.146 17.833,118.865 17.902,118.706 17.986 C 118.547 18.070,118.135 18.261,117.792 18.410 C 117.448 18.560,117.167 18.754,117.167 18.841 C 117.167 18.929,116.979 19.000,116.750 19.000 C 116.521 19.000,116.333 19.075,116.333 19.167 C 116.333 19.258,116.182 19.333,115.998 19.333 C 115.813 19.333,115.532 19.400,115.373 19.481 C 115.214 19.563,114.633 19.842,114.083 20.101 C 113.533 20.360,113.058 20.631,113.028 20.703 C 112.997 20.775,112.826 20.833,112.648 20.833 C 112.469 20.833,112.280 20.946,112.227 21.083 C 112.174 21.221,111.989 21.333,111.816 21.333 C 111.642 21.333,111.500 21.408,111.500 21.500 C 111.500 21.592,111.354 21.667,111.177 21.667 C 110.999 21.667,110.807 21.742,110.750 21.833 C 110.693 21.925,110.501 22.000,110.323 22.000 C 110.146 22.000,110.000 22.075,110.000 22.167 C 110.000 22.258,109.850 22.333,109.667 22.333 C 109.483 22.333,109.333 22.400,109.333 22.482 C 109.333 22.564,109.146 22.678,108.917 22.735 C 108.688 22.793,108.500 22.913,108.500 23.003 C 108.500 23.093,108.409 23.167,108.298 23.167 C 107.926 23.167,105.314 24.522,105.222 24.763 C 105.172 24.893,104.952 25.000,104.732 25.000 C 104.513 25.000,104.333 25.075,104.333 25.167 C 104.333 25.258,104.183 25.333,104.000 25.333 C 103.817 25.333,103.667 25.408,103.667 25.500 C 103.667 25.592,103.580 25.667,103.474 25.667 C 103.368 25.667,103.036 25.854,102.735 26.083 C 102.435 26.313,102.067 26.500,101.918 26.500 C 101.769 26.500,101.693 26.575,101.750 26.667 C 101.807 26.758,101.696 26.833,101.505 26.833 C 101.313 26.833,101.113 26.946,101.060 27.083 C 101.008 27.221,100.837 27.333,100.680 27.333 C 100.524 27.333,100.235 27.483,100.038 27.667 C 99.842 27.850,99.565 28.000,99.424 28.000 C 99.282 28.000,99.167 28.075,99.167 28.167 C 99.167 28.258,98.979 28.333,98.750 28.333 C 98.521 28.333,98.333 28.391,98.333 28.462 C 98.333 28.533,98.071 28.732,97.750 28.905 C 97.429 29.078,97.167 29.282,97.167 29.360 C 97.167 29.437,97.031 29.500,96.865 29.500 C 96.699 29.500,96.402 29.650,96.205 29.833 C 96.008 30.017,95.802 30.167,95.746 30.167 C 95.690 30.167,95.399 30.354,95.098 30.583 C 94.798 30.813,94.471 31.000,94.373 31.000 C 94.275 31.000,94.169 31.059,94.139 31.131 C 94.108 31.203,93.577 31.557,92.958 31.916 C 92.340 32.275,91.833 32.629,91.833 32.701 C 91.833 32.774,91.718 32.833,91.578 32.833 C 91.438 32.833,91.280 32.946,91.227 33.083 C 91.174 33.221,91.023 33.333,90.892 33.333 C 90.760 33.333,90.492 33.483,90.295 33.667 C 90.098 33.850,89.836 34.000,89.711 34.000 C 89.587 34.000,89.283 34.188,89.036 34.417 C 88.789 34.646,88.492 34.833,88.377 34.833 C 88.261 34.833,88.166 34.890,88.165 34.958 C 88.164 35.027,87.714 35.373,87.165 35.727 C 86.616 36.081,86.167 36.437,86.167 36.518 C 86.167 36.600,86.073 36.667,85.958 36.667 C 85.844 36.667,85.532 36.854,85.266 37.084 C 84.999 37.313,84.732 37.500,84.671 37.500 C 84.610 37.500,84.308 37.725,84.000 38.000 C 83.692 38.275,83.368 38.500,83.281 38.500 C 83.193 38.500,82.948 38.687,82.735 38.917 C 82.523 39.146,82.233 39.333,82.091 39.333 C 81.949 39.333,81.833 39.408,81.833 39.500 C 81.833 39.592,81.737 39.667,81.620 39.667 C 81.503 39.667,81.299 39.817,81.167 40.000 C 81.035 40.183,80.846 40.333,80.748 40.333 C 80.650 40.333,80.295 40.592,79.961 40.908 C 79.626 41.224,79.122 41.601,78.841 41.746 C 78.560 41.892,78.237 42.158,78.125 42.339 C 78.012 42.519,77.841 42.667,77.745 42.667 C 77.648 42.667,77.291 42.929,76.951 43.250 C 76.611 43.571,76.258 43.833,76.166 43.833 C 76.075 43.833,76.000 43.890,76.000 43.959 C 76.000 44.029,75.775 44.185,75.500 44.307 C 75.225 44.428,75.000 44.628,75.000 44.750 C 75.000 44.872,74.775 45.072,74.500 45.193 C 74.225 45.315,74.000 45.471,74.000 45.541 C 74.000 45.610,73.887 45.667,73.750 45.667 C 73.612 45.667,73.500 45.792,73.500 45.944 C 73.500 46.097,73.451 46.174,73.392 46.114 C 73.332 46.055,73.051 46.248,72.767 46.545 C 72.482 46.841,71.950 47.307,71.583 47.581 C 71.217 47.854,70.515 48.473,70.023 48.956 C 69.532 49.438,69.026 49.833,68.898 49.833 C 68.771 49.833,68.667 49.896,68.667 49.972 C 68.667 50.048,68.479 50.211,68.250 50.333 C 68.021 50.456,67.833 50.622,67.833 50.702 C 67.833 50.865,67.071 51.667,66.917 51.667 C 66.804 51.667,66.569 51.858,65.686 52.667 C 63.979 54.232,63.333 54.854,63.333 54.935 C 63.333 55.057,62.881 55.500,62.756 55.500 C 62.625 55.500,61.500 56.625,61.500 56.756 C 61.500 56.881,61.057 57.333,60.934 57.333 C 60.730 57.333,59.522 58.567,59.601 58.695 C 59.648 58.771,59.601 58.833,59.497 58.833 C 59.299 58.833,57.333 60.725,57.333 60.915 C 57.333 61.058,56.889 61.500,56.745 61.500 C 56.615 61.500,55.894 62.255,55.419 62.891 C 55.237 63.134,54.993 63.333,54.877 63.333 C 54.761 63.333,54.666 63.390,54.666 63.458 C 54.665 63.581,53.653 64.731,52.332 66.111 C 51.966 66.493,51.667 66.871,51.667 66.950 C 51.667 67.028,51.517 67.201,51.333 67.333 C 51.150 67.465,51.000 67.674,51.000 67.797 C 51.000 67.919,50.938 67.982,50.863 67.935 C 50.710 67.840,50.167 68.412,50.167 68.669 C 50.167 68.759,50.092 68.833,50.000 68.833 C 49.908 68.833,49.833 68.913,49.833 69.011 C 49.833 69.109,49.513 69.503,49.122 69.886 C 48.731 70.270,48.189 70.883,47.918 71.250 C 47.646 71.617,47.028 72.304,46.545 72.777 C 46.062 73.251,45.667 73.718,45.667 73.817 C 45.667 74.013,45.332 74.448,44.625 75.172 C 44.373 75.430,44.167 75.722,44.167 75.821 C 44.167 75.919,44.092 76.000,44.000 76.000 C 43.908 76.000,43.833 76.078,43.833 76.174 C 43.833 76.270,43.646 76.550,43.417 76.797 C 43.187 77.044,42.999 77.322,42.998 77.415 C 42.998 77.508,42.769 77.764,42.489 77.984 C 42.210 78.205,41.869 78.603,41.732 78.869 C 41.594 79.134,41.224 79.626,40.908 79.961 C 40.592 80.295,40.333 80.650,40.333 80.748 C 40.333 80.846,40.183 81.035,40.000 81.167 C 39.817 81.299,39.667 81.503,39.667 81.620 C 39.667 81.737,39.592 81.833,39.500 81.833 C 39.408 81.833,39.333 81.965,39.333 82.127 C 39.333 82.288,39.185 82.512,39.004 82.626 C 38.823 82.739,38.521 83.132,38.334 83.499 C 38.147 83.866,37.925 84.167,37.841 84.167 C 37.758 84.167,37.641 84.319,37.582 84.505 C 37.523 84.692,37.292 85.026,37.070 85.248 C 36.848 85.470,36.667 85.730,36.667 85.826 C 36.667 85.922,36.609 86.000,36.538 86.000 C 36.467 86.000,36.268 86.263,36.095 86.583 C 35.922 86.904,35.718 87.167,35.640 87.167 C 35.563 87.167,35.500 87.279,35.500 87.417 C 35.500 87.554,35.425 87.667,35.333 87.667 C 35.242 87.667,35.167 87.779,35.167 87.917 C 35.167 88.054,35.109 88.167,35.038 88.167 C 34.967 88.167,34.768 88.429,34.595 88.750 C 34.422 89.071,34.218 89.333,34.140 89.333 C 34.063 89.333,34.000 89.472,34.000 89.641 C 34.000 89.810,33.850 90.084,33.667 90.250 C 33.483 90.416,33.333 90.660,33.333 90.794 C 33.333 90.927,33.146 91.183,32.917 91.363 C 32.687 91.543,32.500 91.773,32.500 91.874 C 32.500 91.975,32.399 92.175,32.275 92.320 C 32.151 92.465,31.870 92.921,31.650 93.333 C 31.430 93.746,31.119 94.205,30.958 94.353 C 30.798 94.501,30.667 94.696,30.667 94.785 C 30.667 94.875,30.479 95.166,30.250 95.432 C 30.021 95.699,29.834 95.969,29.834 96.033 C 29.833 96.223,28.621 98.245,28.471 98.306 C 28.395 98.336,28.333 98.542,28.333 98.764 C 28.333 98.985,28.258 99.167,28.167 99.167 C 28.075 99.167,28.000 99.265,28.000 99.385 C 28.000 99.505,27.850 99.765,27.667 99.962 C 27.483 100.158,27.333 100.465,27.333 100.642 C 27.333 100.819,27.221 101.008,27.083 101.060 C 26.946 101.113,26.833 101.271,26.833 101.411 C 26.833 101.552,26.758 101.667,26.667 101.667 C 26.575 101.667,26.500 101.817,26.500 102.000 C 26.500 102.183,26.437 102.333,26.360 102.333 C 26.283 102.333,26.077 102.632,25.902 102.998 C 25.727 103.364,25.527 103.664,25.458 103.665 C 25.390 103.666,25.333 103.817,25.333 104.000 C 25.333 104.183,25.258 104.333,25.167 104.333 C 25.075 104.333,25.000 104.513,25.000 104.732 C 25.000 104.952,24.887 105.174,24.750 105.227 C 24.613 105.280,24.500 105.431,24.500 105.564 C 24.500 105.697,24.444 105.831,24.375 105.861 C 24.306 105.892,24.089 106.254,23.892 106.667 C 23.696 107.079,23.410 107.679,23.257 108.000 C 23.104 108.321,22.765 108.958,22.504 109.417 C 22.244 109.875,22.023 110.381,22.015 110.542 C 22.007 110.702,21.925 110.833,21.833 110.833 C 21.742 110.833,21.667 110.983,21.667 111.167 C 21.667 111.350,21.592 111.500,21.500 111.500 C 21.408 111.500,21.333 111.650,21.333 111.833 C 21.333 112.017,21.273 112.167,21.199 112.167 C 21.125 112.167,20.925 112.485,20.755 112.875 C 20.584 113.265,20.270 113.863,20.056 114.205 C 19.842 114.547,19.667 114.974,19.667 115.154 C 19.667 115.333,19.592 115.527,19.500 115.583 C 19.408 115.640,19.333 115.832,19.333 116.010 C 19.333 116.188,19.258 116.333,19.167 116.333 C 19.075 116.333,19.000 116.521,19.000 116.750 C 19.000 116.979,18.923 117.167,18.829 117.167 C 18.735 117.167,18.581 117.373,18.486 117.625 C 18.391 117.877,18.205 118.301,18.073 118.567 C 17.941 118.833,17.833 119.190,17.833 119.359 C 17.833 119.528,17.758 119.667,17.667 119.667 C 17.575 119.667,17.500 119.854,17.500 120.083 C 17.500 120.313,17.425 120.500,17.333 120.500 C 17.242 120.500,17.167 120.688,17.167 120.917 C 17.167 121.146,17.072 121.333,16.957 121.333 C 16.755 121.333,16.333 122.400,16.333 122.914 C 16.333 123.053,16.258 123.167,16.167 123.167 C 16.075 123.167,16.000 123.310,16.000 123.486 C 16.000 123.662,15.916 123.833,15.814 123.867 C 15.712 123.902,15.605 124.142,15.577 124.402 C 15.548 124.662,15.444 124.956,15.346 125.054 C 15.247 125.153,15.167 125.368,15.167 125.533 C 15.167 125.698,15.092 125.833,15.000 125.833 C 14.908 125.833,14.833 126.058,14.833 126.333 C 14.833 126.608,14.769 126.833,14.689 126.833 C 14.521 126.833,14.000 128.129,14.000 128.547 C 14.000 128.705,13.925 128.833,13.833 128.833 C 13.742 128.833,13.667 129.016,13.667 129.240 C 13.667 129.464,13.592 129.693,13.500 129.750 C 13.408 129.807,13.333 130.036,13.333 130.260 C 13.333 130.484,13.258 130.667,13.167 130.667 C 13.075 130.667,13.000 130.884,13.000 131.149 C 13.000 131.424,12.893 131.672,12.750 131.727 C 12.612 131.780,12.500 132.008,12.500 132.235 C 12.500 132.462,12.425 132.693,12.333 132.750 C 12.242 132.807,12.167 133.032,12.167 133.250 C 12.167 133.468,12.092 133.693,12.000 133.750 C 11.908 133.807,11.833 134.069,11.833 134.333 C 11.833 134.598,11.758 134.860,11.667 134.917 C 11.575 134.973,11.500 135.236,11.500 135.500 C 11.500 135.764,11.425 136.027,11.333 136.083 C 11.242 136.140,11.167 136.398,11.167 136.656 C 11.167 136.914,11.054 137.219,10.917 137.333 C 10.779 137.447,10.667 137.715,10.667 137.927 C 10.667 138.140,10.592 138.360,10.500 138.417 C 10.408 138.473,10.333 138.731,10.333 138.989 C 10.333 139.248,10.221 139.553,10.083 139.667 C 9.946 139.781,9.833 140.090,9.833 140.354 C 9.833 140.618,9.758 140.833,9.667 140.833 C 9.575 140.833,9.500 141.054,9.500 141.323 C 9.500 141.593,9.425 141.860,9.333 141.917 C 9.242 141.973,9.167 142.278,9.167 142.593 C 9.167 142.909,9.092 143.167,9.000 143.167 C 8.908 143.167,8.833 143.460,8.833 143.819 C 8.833 144.178,8.751 144.500,8.651 144.533 C 8.486 144.588,8.321 145.152,8.052 146.583 C 8.000 146.858,7.907 147.158,7.845 147.250 C 7.783 147.342,7.711 147.679,7.684 148.000 C 7.658 148.321,7.568 148.608,7.485 148.639 C 7.401 148.669,7.333 148.946,7.333 149.254 C 7.333 149.562,7.258 149.860,7.167 149.917 C 7.075 149.973,7.000 150.307,7.000 150.659 C 7.000 151.073,6.912 151.331,6.750 151.394 C 6.586 151.457,6.500 151.717,6.500 152.152 C 6.500 152.516,6.425 152.860,6.333 152.917 C 6.242 152.973,6.167 153.390,6.167 153.843 C 6.167 154.296,6.092 154.667,6.000 154.667 C 5.908 154.667,5.833 155.004,5.833 155.417 C 5.833 155.829,5.758 156.167,5.667 156.167 C 5.575 156.167,5.500 156.500,5.500 156.907 C 5.500 157.314,5.425 157.693,5.333 157.750 C 5.242 157.807,5.167 158.226,5.167 158.682 C 5.167 159.265,5.093 159.539,4.917 159.606 C 4.739 159.675,4.667 159.952,4.667 160.568 C 4.667 161.044,4.577 161.523,4.467 161.633 C 4.357 161.743,4.208 162.264,4.135 162.791 C 4.062 163.319,3.922 164.237,3.825 164.833 C 3.727 165.429,3.607 166.329,3.559 166.833 C 3.510 167.337,3.402 167.821,3.319 167.908 C 3.235 167.995,3.167 168.497,3.167 169.023 C 3.167 169.550,3.092 170.027,3.000 170.083 C 2.908 170.140,2.833 170.810,2.833 171.573 C 2.833 172.602,2.769 173.013,2.583 173.167 C 2.400 173.319,2.333 173.722,2.333 174.677 C 2.333 175.394,2.258 176.027,2.167 176.083 C 2.075 176.140,2.000 176.815,2.000 177.583 C 2.000 178.352,1.925 179.027,1.833 179.083 C 1.737 179.143,1.667 180.054,1.667 181.250 C 1.667 182.446,1.597 183.357,1.500 183.417 C 1.402 183.477,1.333 184.471,1.333 185.833 C 1.333 187.196,1.265 188.189,1.167 188.250 C 0.937 188.392,0.937 211.608,1.167 211.750 C 1.265 211.811,1.333 212.835,1.333 214.260 C 1.333 215.753,1.397 216.667,1.500 216.667 C 1.602 216.667,1.667 217.469,1.667 218.740 C 1.667 219.943,1.737 220.857,1.833 220.917 C 1.925 220.973,2.000 221.648,2.000 222.417 C 2.000 223.185,2.075 223.860,2.167 223.917 C 2.258 223.973,2.333 224.606,2.333 225.323 C 2.333 226.278,2.400 226.681,2.583 226.833 C 2.769 226.987,2.833 227.398,2.833 228.427 C 2.833 229.190,2.908 229.860,3.000 229.917 C 3.092 229.973,3.167 230.450,3.167 230.977 C 3.167 231.503,3.235 232.005,3.319 232.092 C 3.402 232.179,3.513 232.662,3.565 233.167 C 3.785 235.314,3.874 235.926,3.989 236.083 C 4.056 236.175,4.129 236.625,4.151 237.083 C 4.173 237.542,4.298 238.083,4.429 238.286 C 4.560 238.489,4.667 239.035,4.667 239.499 C 4.667 240.096,4.740 240.372,4.917 240.440 C 5.091 240.507,5.167 240.779,5.167 241.341 C 5.167 241.784,5.242 242.193,5.333 242.250 C 5.425 242.307,5.500 242.686,5.500 243.093 C 5.500 243.500,5.575 243.833,5.667 243.833 C 5.758 243.833,5.833 244.171,5.833 244.583 C 5.833 244.996,5.908 245.333,6.000 245.333 C 6.092 245.333,6.167 245.704,6.167 246.157 C 6.167 246.610,6.242 247.027,6.333 247.083 C 6.425 247.140,6.500 247.484,6.500 247.848 C 6.500 248.283,6.586 248.543,6.750 248.606 C 6.920 248.672,7.000 248.937,7.000 249.434 C 7.000 249.837,7.067 250.167,7.149 250.167 C 7.231 250.167,7.344 250.467,7.399 250.833 C 7.455 251.200,7.545 251.800,7.601 252.167 C 7.656 252.533,7.761 252.833,7.833 252.833 C 7.957 252.833,8.055 253.253,8.275 254.721 C 8.328 255.071,8.475 255.398,8.602 255.447 C 8.744 255.501,8.833 255.783,8.833 256.175 C 8.833 256.526,8.908 256.860,9.000 256.917 C 9.092 256.973,9.167 257.236,9.167 257.500 C 9.167 257.764,9.242 258.027,9.333 258.083 C 9.425 258.140,9.500 258.365,9.500 258.583 C 9.500 258.802,9.575 259.027,9.667 259.083 C 9.758 259.140,9.833 259.399,9.833 259.659 C 9.833 259.925,9.942 260.173,10.083 260.227 C 10.240 260.287,10.333 260.542,10.333 260.911 C 10.333 261.235,10.408 261.500,10.500 261.500 C 10.592 261.500,10.667 261.727,10.667 262.005 C 10.667 262.301,10.771 262.550,10.917 262.606 C 11.070 262.665,11.167 262.918,11.167 263.258 C 11.167 263.564,11.242 263.860,11.333 263.917 C 11.425 263.973,11.500 264.236,11.500 264.500 C 11.500 264.764,11.575 265.027,11.667 265.083 C 11.758 265.140,11.833 265.365,11.833 265.583 C 11.833 265.802,11.908 266.027,12.000 266.083 C 12.092 266.140,12.167 266.402,12.167 266.667 C 12.167 266.931,12.242 267.193,12.333 267.250 C 12.425 267.307,12.500 267.538,12.500 267.765 C 12.500 267.992,12.612 268.220,12.750 268.273 C 12.887 268.326,13.000 268.544,13.000 268.758 C 13.000 268.972,13.075 269.193,13.167 269.250 C 13.258 269.307,13.333 269.536,13.333 269.760 C 13.333 269.984,13.408 270.167,13.500 270.167 C 13.592 270.167,13.667 270.392,13.667 270.667 C 13.667 270.942,13.742 271.167,13.833 271.167 C 13.925 271.167,14.000 271.350,14.000 271.573 C 14.000 271.797,14.075 272.027,14.167 272.083 C 14.258 272.140,14.333 272.327,14.333 272.498 C 14.333 272.669,14.446 272.922,14.583 273.060 C 14.721 273.197,14.833 273.502,14.833 273.738 C 14.833 273.974,14.908 274.167,15.000 274.167 C 15.092 274.167,15.167 274.312,15.167 274.490 C 15.167 274.668,15.242 274.860,15.333 274.917 C 15.425 274.973,15.500 275.243,15.500 275.515 C 15.500 275.802,15.605 276.051,15.750 276.106 C 15.887 276.159,16.000 276.344,16.000 276.518 C 16.000 276.691,16.075 276.833,16.167 276.833 C 16.258 276.833,16.333 276.959,16.333 277.113 C 16.333 277.557,16.728 278.570,16.957 278.717 C 17.073 278.790,17.167 278.992,17.167 279.165 C 17.167 279.338,17.242 279.527,17.333 279.583 C 17.425 279.640,17.500 279.832,17.500 280.010 C 17.500 280.188,17.575 280.333,17.667 280.333 C 17.758 280.333,17.833 280.516,17.833 280.740 C 17.833 280.964,17.908 281.193,18.000 281.250 C 18.092 281.307,18.167 281.499,18.167 281.677 C 18.167 281.854,18.242 282.000,18.333 282.000 C 18.425 282.000,18.500 282.188,18.500 282.417 C 18.500 282.676,18.594 282.833,18.750 282.833 C 18.889 282.833,19.000 282.982,19.000 283.169 C 19.000 283.354,19.066 283.635,19.147 283.794 C 19.228 283.953,19.368 284.271,19.459 284.500 C 19.813 285.396,20.579 286.920,20.703 286.972 C 20.775 287.003,20.833 287.174,20.833 287.352 C 20.833 287.531,20.946 287.720,21.083 287.773 C 21.221 287.826,21.333 288.011,21.333 288.184 C 21.333 288.358,21.408 288.500,21.500 288.500 C 21.592 288.500,21.667 288.646,21.667 288.823 C 21.667 289.001,21.742 289.193,21.833 289.250 C 21.925 289.307,22.000 289.499,22.000 289.677 C 22.000 289.854,22.075 290.000,22.167 290.000 C 22.258 290.000,22.333 290.106,22.333 290.236 C 22.333 290.534,22.874 291.498,23.042 291.499 C 23.110 291.500,23.167 291.595,23.167 291.711 C 23.167 291.958,24.160 294.044,24.335 294.167 C 24.401 294.212,24.508 294.419,24.572 294.625 C 24.636 294.831,24.759 295.000,24.845 295.000 C 24.930 295.000,25.002 295.131,25.004 295.292 C 25.006 295.452,25.154 295.771,25.333 296.000 C 25.513 296.229,25.661 296.510,25.663 296.625 C 25.665 296.740,25.734 296.833,25.815 296.833 C 25.897 296.833,26.011 297.021,26.068 297.250 C 26.126 297.479,26.247 297.667,26.337 297.667 C 26.426 297.667,26.500 297.817,26.500 298.000 C 26.500 298.183,26.575 298.333,26.667 298.333 C 26.758 298.333,26.833 298.448,26.833 298.589 C 26.833 298.729,26.946 298.887,27.083 298.940 C 27.221 298.992,27.335 299.159,27.337 299.309 C 27.339 299.460,27.487 299.771,27.667 300.000 C 27.846 300.229,27.994 300.548,27.996 300.708 C 27.998 300.869,28.075 301.000,28.167 301.000 C 28.258 301.000,28.333 301.118,28.333 301.262 C 28.333 301.406,28.427 301.628,28.542 301.756 C 29.036 302.308,29.167 302.496,29.167 302.660 C 29.167 302.755,29.242 302.833,29.333 302.833 C 29.425 302.833,29.500 302.969,29.500 303.135 C 29.500 303.301,29.631 303.587,29.792 303.769 C 30.128 304.152,30.453 304.640,30.613 305.000 C 30.674 305.137,31.011 305.677,31.362 306.199 C 31.713 306.721,32.000 307.222,32.000 307.312 C 32.000 307.402,32.094 307.575,32.208 307.696 C 32.323 307.818,32.523 308.123,32.653 308.375 C 32.783 308.627,32.989 308.833,33.111 308.833 C 33.234 308.833,33.333 309.004,33.333 309.213 C 33.333 309.422,33.483 309.701,33.667 309.833 C 33.850 309.965,34.000 310.207,34.000 310.370 C 34.000 310.533,34.063 310.667,34.140 310.667 C 34.218 310.667,34.422 310.929,34.595 311.250 C 34.768 311.571,34.967 311.833,35.038 311.833 C 35.109 311.833,35.167 311.950,35.167 312.093 C 35.167 312.236,35.242 312.307,35.333 312.250 C 35.425 312.193,35.500 312.283,35.500 312.448 C 35.500 312.710,35.688 312.994,36.497 313.951 C 36.590 314.062,36.667 314.214,36.667 314.290 C 36.667 314.365,36.817 314.535,37.000 314.667 C 37.183 314.799,37.333 315.006,37.333 315.128 C 37.333 315.249,37.521 315.536,37.750 315.765 C 37.979 315.994,38.167 316.291,38.167 316.424 C 38.167 316.558,38.242 316.667,38.333 316.667 C 38.425 316.667,38.500 316.745,38.500 316.841 C 38.500 316.936,38.688 317.217,38.917 317.464 C 39.146 317.711,39.333 317.991,39.333 318.087 C 39.333 318.182,39.483 318.368,39.667 318.500 C 39.850 318.632,40.000 318.832,40.000 318.944 C 40.000 319.056,40.337 319.489,40.750 319.908 C 41.162 320.326,41.500 320.739,41.500 320.826 C 41.500 320.913,41.619 321.050,41.765 321.132 C 41.911 321.213,42.033 321.348,42.036 321.432 C 42.050 321.765,42.214 322.000,42.434 322.000 C 42.562 322.000,42.667 322.106,42.667 322.236 C 42.667 322.365,42.929 322.742,43.250 323.072 C 43.571 323.402,43.833 323.746,43.833 323.836 C 43.833 323.926,43.890 324.000,43.959 324.000 C 44.029 324.000,44.185 324.225,44.307 324.500 C 44.428 324.775,44.621 325.000,44.736 325.000 C 44.850 325.000,45.044 325.188,45.167 325.417 C 45.289 325.646,45.452 325.833,45.528 325.833 C 45.604 325.833,45.667 325.947,45.667 326.087 C 45.667 326.226,46.090 326.770,46.606 327.295 C 47.123 327.820,47.741 328.512,47.980 328.833 C 48.218 329.154,48.808 329.806,49.290 330.281 C 49.772 330.756,50.167 331.250,50.167 331.379 C 50.167 331.507,50.502 331.906,50.912 332.265 C 51.322 332.623,51.660 332.976,51.662 333.050 C 51.665 333.123,52.023 333.546,52.458 333.989 C 53.612 335.165,54.667 336.380,54.667 336.533 C 54.667 336.607,54.747 336.667,54.845 336.667 C 55.036 336.667,55.500 337.076,55.500 337.244 C 55.500 337.416,56.646 338.500,56.828 338.500 C 56.922 338.500,57.000 338.579,57.000 338.675 C 57.000 338.913,59.256 341.167,59.495 341.167 C 59.600 341.167,59.648 341.229,59.601 341.305 C 59.522 341.433,60.730 342.667,60.934 342.667 C 61.059 342.667,61.500 343.120,61.500 343.249 C 61.500 343.379,64.011 345.823,64.894 346.552 C 65.248 346.844,65.827 347.365,66.179 347.708 C 66.532 348.052,66.862 348.333,66.912 348.333 C 66.963 348.333,67.364 348.690,67.803 349.125 C 68.243 349.560,68.969 350.217,69.418 350.583 C 69.867 350.950,70.351 351.388,70.492 351.556 C 70.634 351.725,71.087 352.098,71.500 352.385 C 71.912 352.672,72.562 353.228,72.943 353.620 C 73.325 354.012,73.719 354.333,73.818 354.333 C 73.918 354.333,74.000 354.408,74.000 354.500 C 74.000 354.592,74.085 354.667,74.189 354.667 C 74.292 354.667,74.625 354.929,74.927 355.250 C 75.230 355.571,75.548 355.833,75.635 355.833 C 75.722 355.833,75.887 355.948,76.003 356.087 C 76.119 356.227,76.242 356.313,76.277 356.279 C 76.311 356.244,76.606 356.468,76.932 356.775 C 77.257 357.082,77.631 357.333,77.762 357.333 C 77.893 357.333,78.000 357.433,78.000 357.555 C 78.000 357.677,78.187 357.877,78.417 358.000 C 78.646 358.123,78.833 358.285,78.833 358.361 C 78.833 358.438,78.931 358.500,79.051 358.500 C 79.171 358.500,79.631 358.837,80.074 359.250 C 80.517 359.662,80.982 360.000,81.106 360.000 C 81.231 360.000,81.335 360.056,81.338 360.125 C 81.340 360.194,81.790 360.550,82.338 360.916 C 82.885 361.282,83.333 361.638,83.333 361.707 C 83.333 361.777,83.427 361.835,83.542 361.836 C 83.656 361.838,83.927 362.025,84.142 362.253 C 84.358 362.480,84.661 362.667,84.814 362.667 C 84.968 362.667,85.201 362.817,85.333 363.000 C 85.465 363.183,85.652 363.333,85.747 363.333 C 85.842 363.333,86.107 363.502,86.335 363.708 C 86.563 363.915,86.956 364.190,87.208 364.320 C 87.460 364.450,87.667 364.619,87.667 364.695 C 87.667 364.771,87.779 364.833,87.917 364.833 C 88.054 364.833,88.167 364.908,88.167 365.000 C 88.167 365.092,88.261 365.167,88.377 365.167 C 88.492 365.167,88.789 365.354,89.036 365.583 C 89.283 365.812,89.601 366.000,89.743 366.000 C 89.884 366.000,90.000 366.075,90.000 366.167 C 90.000 366.258,90.080 366.333,90.179 366.333 C 90.277 366.333,90.470 366.447,90.609 366.585 C 90.747 366.723,90.921 366.799,90.996 366.752 C 91.071 366.706,91.175 366.781,91.227 366.918 C 91.280 367.055,91.400 367.167,91.494 367.167 C 91.587 367.167,91.840 367.320,92.055 367.506 C 92.497 367.891,93.439 368.460,93.875 368.607 C 94.035 368.661,94.167 368.772,94.167 368.853 C 94.167 368.934,94.247 369.000,94.345 369.000 C 94.443 369.000,94.628 369.094,94.756 369.208 C 95.311 369.706,95.497 369.833,95.667 369.833 C 95.766 369.833,96.008 369.983,96.205 370.167 C 96.402 370.350,96.699 370.500,96.865 370.500 C 97.031 370.500,97.167 370.563,97.167 370.640 C 97.167 370.718,97.429 370.922,97.750 371.095 C 98.071 371.268,98.333 371.467,98.333 371.538 C 98.333 371.609,98.521 371.667,98.750 371.667 C 98.979 371.667,99.167 371.742,99.167 371.833 C 99.167 371.925,99.309 372.000,99.482 372.000 C 99.656 372.000,99.842 372.116,99.897 372.258 C 99.951 372.400,100.222 372.595,100.498 372.691 C 100.774 372.787,101.000 372.934,101.000 373.016 C 101.000 373.099,101.200 373.167,101.444 373.167 C 101.689 373.167,101.839 373.216,101.779 373.277 C 101.663 373.393,102.009 373.622,103.042 374.114 C 103.385 374.278,103.667 374.469,103.667 374.539 C 103.667 374.609,103.817 374.667,104.000 374.667 C 104.183 374.667,104.333 374.742,104.333 374.833 C 104.333 374.925,104.521 375.000,104.750 375.000 C 104.994 375.000,105.167 375.096,105.167 375.231 C 105.167 375.357,105.298 375.503,105.458 375.554 C 105.619 375.604,105.938 375.754,106.167 375.885 C 107.006 376.368,108.038 376.833,108.266 376.833 C 108.395 376.833,108.500 376.907,108.500 376.997 C 108.500 377.087,108.688 377.207,108.917 377.265 C 109.146 377.322,109.333 377.436,109.333 377.518 C 109.333 377.600,109.477 377.667,109.653 377.667 C 109.828 377.667,109.997 377.723,110.028 377.792 C 110.098 377.950,112.540 379.167,112.788 379.167 C 112.889 379.167,112.997 379.225,113.028 379.297 C 113.058 379.369,113.533 379.640,114.083 379.899 C 114.633 380.158,115.214 380.437,115.373 380.519 C 115.532 380.600,115.809 380.667,115.988 380.667 C 116.167 380.667,116.360 380.742,116.417 380.833 C 116.473 380.925,116.665 381.000,116.843 381.000 C 117.021 381.000,117.167 381.071,117.167 381.159 C 117.167 381.246,117.448 381.440,117.792 381.590 C 118.135 381.739,118.547 381.930,118.706 382.014 C 118.865 382.098,119.146 382.167,119.331 382.167 C 119.516 382.167,119.667 382.242,119.667 382.333 C 119.667 382.425,119.854 382.500,120.083 382.500 C 120.313 382.500,120.500 382.575,120.500 382.667 C 120.500 382.758,120.688 382.833,120.917 382.833 C 121.176 382.833,121.333 382.928,121.333 383.083 C 121.333 383.221,121.448 383.333,121.589 383.333 C 121.729 383.333,122.385 383.596,123.046 383.917 C 123.708 384.238,124.418 384.500,124.624 384.500 C 124.831 384.500,125.000 384.575,125.000 384.667 C 125.000 384.758,125.188 384.833,125.417 384.833 C 125.646 384.833,125.833 384.908,125.833 385.000 C 125.833 385.092,126.052 385.167,126.319 385.167 C 126.587 385.167,126.833 385.250,126.867 385.351 C 126.934 385.553,128.076 385.993,128.542 385.997 C 128.702 385.999,128.833 386.075,128.833 386.167 C 128.833 386.258,129.016 386.333,129.240 386.333 C 129.464 386.333,129.693 386.408,129.750 386.500 C 129.807 386.592,130.036 386.667,130.260 386.667 C 130.484 386.667,130.667 386.742,130.667 386.833 C 130.667 386.925,130.894 387.000,131.172 387.000 C 131.467 387.000,131.717 387.104,131.773 387.250 C 131.826 387.387,132.044 387.500,132.258 387.500 C 132.472 387.500,132.693 387.575,132.750 387.667 C 132.807 387.758,133.032 387.833,133.250 387.833 C 133.468 387.833,133.693 387.908,133.750 388.000 C 133.807 388.092,134.069 388.167,134.333 388.167 C 134.598 388.167,134.860 388.242,134.917 388.333 C 134.973 388.425,135.208 388.500,135.438 388.500 C 135.669 388.500,135.970 388.613,136.107 388.750 C 136.245 388.887,136.535 389.000,136.752 389.000 C 136.969 389.000,137.193 389.075,137.250 389.167 C 137.307 389.258,137.496 389.333,137.671 389.333 C 137.846 389.333,138.272 389.456,138.619 389.606 C 139.830 390.131,140.224 390.256,141.250 390.440 C 141.525 390.490,141.775 390.598,141.806 390.682 C 141.836 390.765,142.113 390.833,142.421 390.833 C 142.729 390.833,143.027 390.908,143.083 391.000 C 143.140 391.092,143.435 391.167,143.739 391.167 C 144.044 391.167,144.379 391.271,144.485 391.399 C 144.667 391.617,145.021 391.711,146.542 391.941 C 146.885 391.993,147.167 392.102,147.167 392.184 C 147.167 392.266,147.462 392.333,147.823 392.333 C 148.185 392.333,148.527 392.408,148.583 392.500 C 148.640 392.592,148.986 392.667,149.353 392.667 C 149.755 392.667,149.979 392.733,149.917 392.833 C 149.854 392.935,150.103 393.000,150.556 393.000 C 151.061 393.000,151.328 393.080,151.394 393.250 C 151.457 393.414,151.717 393.500,152.152 393.500 C 152.516 393.500,152.851 393.561,152.897 393.635 C 152.943 393.709,153.341 393.788,153.782 393.811 C 154.223 393.833,154.608 393.922,154.639 394.009 C 154.669 394.096,155.007 394.169,155.389 394.172 C 155.771 394.175,156.229 394.287,156.407 394.422 C 156.585 394.557,157.012 394.667,157.355 394.667 C 157.699 394.667,158.027 394.742,158.083 394.833 C 158.140 394.925,158.515 395.000,158.917 395.000 C 159.318 395.000,159.693 395.075,159.750 395.167 C 159.807 395.258,160.217 395.333,160.663 395.333 C 161.108 395.333,161.500 395.416,161.534 395.518 C 161.595 395.703,163.019 395.949,164.958 396.109 C 165.531 396.156,166.000 396.264,166.000 396.348 C 166.000 396.431,166.446 396.500,166.990 396.500 C 167.535 396.500,168.027 396.575,168.083 396.667 C 168.140 396.758,168.627 396.833,169.167 396.833 C 169.706 396.833,170.193 396.908,170.250 397.000 C 170.307 397.092,170.954 397.167,171.688 397.167 C 172.653 397.167,173.093 397.236,173.274 397.417 C 173.451 397.594,173.883 397.667,174.752 397.667 C 175.428 397.667,176.017 397.727,176.063 397.800 C 176.108 397.873,176.806 397.954,177.614 397.978 C 178.422 398.003,179.108 398.093,179.139 398.178 C 179.169 398.264,180.051 398.333,181.097 398.333 C 182.255 398.333,183.000 398.399,183.000 398.500 C 183.000 398.603,183.917 398.667,185.417 398.667 C 186.917 398.667,187.833 398.730,187.833 398.833 C 187.833 398.943,191.997 399.000,199.990 399.000 C 207.915 399.000,212.183 398.942,212.250 398.833 C 212.311 398.735,213.304 398.667,214.667 398.667 C 216.029 398.667,217.023 398.598,217.083 398.500 C 217.142 398.405,217.974 398.333,219.010 398.333 C 220.114 398.333,220.833 398.268,220.833 398.167 C 220.833 398.068,221.441 398.000,222.323 398.000 C 223.143 398.000,223.860 397.925,223.917 397.833 C 223.973 397.742,224.618 397.667,225.348 397.667 C 226.376 397.667,226.699 397.610,226.773 397.417 C 226.848 397.222,227.177 397.167,228.258 397.167 C 229.022 397.167,229.693 397.092,229.750 397.000 C 229.807 396.908,230.299 396.833,230.843 396.833 C 231.392 396.833,231.833 396.759,231.833 396.667 C 231.833 396.573,232.306 396.500,232.917 396.500 C 233.512 396.500,234.000 396.431,234.000 396.348 C 234.000 396.264,234.469 396.156,235.042 396.109 C 236.981 395.949,238.405 395.703,238.466 395.518 C 238.500 395.416,238.892 395.333,239.337 395.333 C 239.783 395.333,240.193 395.258,240.250 395.167 C 240.307 395.075,240.682 395.000,241.083 395.000 C 241.485 395.000,241.854 394.935,241.903 394.855 C 241.953 394.775,242.385 394.672,242.864 394.626 C 243.344 394.580,243.764 394.458,243.799 394.354 C 243.833 394.251,244.192 394.167,244.597 394.167 C 245.002 394.167,245.333 394.092,245.333 394.000 C 245.333 393.908,245.704 393.833,246.157 393.833 C 246.610 393.833,247.027 393.758,247.083 393.667 C 247.140 393.575,247.519 393.500,247.927 393.500 C 248.473 393.500,248.667 393.435,248.667 393.250 C 248.667 393.064,248.862 393.000,249.427 393.000 C 249.891 393.000,250.146 392.935,250.083 392.833 C 250.021 392.733,250.245 392.667,250.647 392.667 C 251.014 392.667,251.360 392.592,251.417 392.500 C 251.473 392.408,251.815 392.333,252.177 392.333 C 252.538 392.333,252.833 392.258,252.833 392.167 C 252.833 392.075,253.129 392.000,253.490 392.000 C 253.851 392.000,254.193 391.925,254.250 391.833 C 254.307 391.742,254.564 391.667,254.823 391.667 C 255.081 391.667,255.386 391.554,255.500 391.417 C 255.614 391.279,255.956 391.167,256.261 391.167 C 256.565 391.167,256.860 391.092,256.917 391.000 C 256.973 390.908,257.273 390.833,257.583 390.833 C 257.893 390.833,258.193 390.758,258.250 390.667 C 258.307 390.575,258.532 390.500,258.750 390.500 C 258.968 390.500,259.193 390.425,259.250 390.333 C 259.307 390.242,259.537 390.167,259.762 390.167 C 259.987 390.167,260.301 390.101,260.461 390.020 C 261.226 389.633,262.042 389.333,262.329 389.333 C 262.504 389.333,262.693 389.258,262.750 389.167 C 262.807 389.075,263.031 389.000,263.248 389.000 C 263.465 389.000,263.755 388.887,263.893 388.750 C 264.030 388.613,264.331 388.500,264.562 388.500 C 264.792 388.500,265.027 388.425,265.083 388.333 C 265.140 388.242,265.402 388.167,265.667 388.167 C 265.931 388.167,266.193 388.092,266.250 388.000 C 266.307 387.908,266.521 387.833,266.727 387.833 C 266.932 387.833,267.171 387.765,267.258 387.681 C 267.345 387.597,267.604 387.501,267.833 387.468 C 268.063 387.436,268.231 387.317,268.208 387.204 C 268.182 387.074,268.378 387.000,268.750 387.000 C 269.071 387.000,269.333 386.943,269.333 386.874 C 269.333 386.736,270.510 386.333,270.914 386.333 C 271.053 386.333,271.167 386.258,271.167 386.167 C 271.167 386.075,271.298 385.999,271.458 385.997 C 271.924 385.993,273.066 385.553,273.133 385.351 C 273.167 385.250,273.413 385.167,273.681 385.167 C 273.948 385.167,274.167 385.092,274.167 385.000 C 274.167 384.908,274.354 384.833,274.583 384.833 C 274.813 384.833,275.000 384.758,275.000 384.667 C 275.000 384.575,275.169 384.500,275.376 384.500 C 275.582 384.500,276.292 384.238,276.954 383.917 C 277.615 383.596,278.224 383.333,278.308 383.333 C 278.391 383.333,278.553 383.221,278.667 383.083 C 278.781 382.946,279.015 382.833,279.187 382.833 C 279.359 382.833,279.500 382.758,279.500 382.667 C 279.500 382.575,279.688 382.500,279.917 382.500 C 280.146 382.500,280.333 382.425,280.333 382.333 C 280.333 382.242,280.484 382.167,280.669 382.167 C 280.854 382.167,281.135 382.098,281.294 382.014 C 281.453 381.930,281.865 381.739,282.208 381.590 C 282.552 381.440,282.833 381.246,282.833 381.159 C 282.833 381.071,283.021 381.000,283.250 381.000 C 283.479 381.000,283.667 380.925,283.667 380.833 C 283.667 380.742,283.818 380.667,284.002 380.667 C 284.187 380.667,284.468 380.600,284.627 380.519 C 284.786 380.437,285.367 380.158,285.917 379.899 C 286.467 379.640,286.942 379.369,286.972 379.297 C 287.003 379.225,287.106 379.167,287.202 379.167 C 287.457 379.167,289.907 377.959,289.972 377.801 C 290.003 377.727,290.128 377.667,290.250 377.667 C 290.537 377.667,291.498 377.122,291.499 376.958 C 291.500 376.890,291.605 376.833,291.734 376.833 C 291.941 376.833,292.745 376.481,293.750 375.948 C 293.933 375.851,294.290 375.668,294.542 375.540 C 294.794 375.413,295.000 375.239,295.000 375.154 C 295.000 375.070,295.110 375.000,295.245 375.000 C 295.480 375.000,296.181 374.641,297.250 373.974 C 297.525 373.802,297.881 373.617,298.042 373.562 C 298.202 373.506,298.333 373.395,298.333 373.314 C 298.333 373.233,298.483 373.167,298.667 373.167 C 298.850 373.167,299.000 373.097,299.000 373.013 C 299.000 372.928,299.268 372.771,299.595 372.663 C 299.922 372.555,300.230 372.361,300.279 372.233 C 300.329 372.105,300.511 372.000,300.684 372.000 C 300.858 372.000,301.000 371.925,301.000 371.833 C 301.000 371.742,301.150 371.667,301.333 371.667 C 301.517 371.667,301.667 371.609,301.667 371.538 C 301.667 371.467,301.929 371.268,302.250 371.095 C 302.571 370.922,302.833 370.718,302.833 370.640 C 302.833 370.563,302.969 370.500,303.135 370.500 C 303.301 370.500,303.598 370.350,303.795 370.167 C 303.992 369.983,304.268 369.833,304.410 369.833 C 304.551 369.833,304.667 369.775,304.667 369.705 C 304.667 369.634,304.929 369.434,305.250 369.262 C 305.571 369.089,305.833 368.898,305.833 368.838 C 305.833 368.778,306.096 368.626,306.417 368.500 C 306.737 368.374,307.000 368.210,307.000 368.136 C 307.000 368.061,307.095 368.000,307.210 368.000 C 307.326 368.000,307.622 367.813,307.869 367.583 C 308.117 367.354,308.400 367.167,308.500 367.167 C 308.599 367.167,308.771 367.090,308.882 366.997 C 309.837 366.190,310.122 366.000,310.375 366.000 C 310.535 366.000,310.667 365.937,310.667 365.860 C 310.667 365.782,310.929 365.578,311.250 365.405 C 311.571 365.232,311.833 365.033,311.833 364.962 C 311.833 364.891,311.946 364.833,312.083 364.833 C 312.221 364.833,312.333 364.771,312.333 364.695 C 312.333 364.619,312.540 364.451,312.792 364.322 C 313.044 364.193,313.415 363.918,313.617 363.711 C 313.819 363.503,314.084 363.333,314.205 363.333 C 314.327 363.333,314.535 363.183,314.667 363.000 C 314.799 362.817,315.022 362.667,315.162 362.666 C 315.383 362.666,315.673 362.468,316.618 361.670 C 316.729 361.576,316.863 361.500,316.917 361.500 C 316.971 361.500,317.217 361.313,317.464 361.083 C 317.711 360.854,317.991 360.667,318.087 360.667 C 318.182 360.667,318.368 360.517,318.500 360.333 C 318.632 360.150,318.826 360.000,318.930 360.000 C 319.035 360.000,319.483 359.662,319.926 359.250 C 320.369 358.837,320.829 358.500,320.949 358.500 C 321.069 358.500,321.167 358.425,321.167 358.333 C 321.167 358.242,321.247 358.167,321.345 358.167 C 321.576 358.167,322.000 357.743,322.000 357.512 C 322.000 357.414,322.107 357.333,322.238 357.333 C 322.369 357.333,322.743 357.082,323.068 356.775 C 323.394 356.468,323.689 356.244,323.723 356.279 C 323.758 356.313,323.881 356.227,323.997 356.087 C 324.113 355.948,324.278 355.833,324.365 355.833 C 324.452 355.833,324.770 355.571,325.073 355.250 C 325.375 354.929,325.701 354.667,325.797 354.667 C 325.892 354.667,326.393 354.254,326.909 353.750 C 327.426 353.246,327.882 352.833,327.922 352.833 C 328.025 352.833,328.639 352.337,329.211 351.792 C 329.476 351.540,329.724 351.333,329.763 351.333 C 329.801 351.333,330.145 351.031,330.526 350.660 C 330.908 350.290,331.433 349.862,331.693 349.708 C 331.954 349.554,332.167 349.366,332.167 349.290 C 332.167 349.124,332.937 348.333,333.098 348.333 C 333.160 348.333,333.332 348.202,333.480 348.042 C 333.629 347.881,334.237 347.325,334.833 346.805 C 336.514 345.339,338.500 343.374,338.500 343.177 C 338.500 343.080,338.580 343.000,338.678 343.000 C 338.776 343.000,339.789 342.068,340.928 340.928 C 342.068 339.789,343.000 338.776,343.000 338.678 C 343.000 338.580,343.080 338.500,343.177 338.500 C 343.363 338.500,345.641 336.209,346.552 335.106 C 346.844 334.752,347.365 334.173,347.708 333.821 C 348.052 333.468,348.333 333.140,348.333 333.091 C 348.333 333.042,348.671 332.660,349.083 332.241 C 349.496 331.823,349.833 331.372,349.833 331.240 C 349.833 331.108,349.927 330.999,350.042 330.998 C 350.156 330.998,350.416 330.791,350.618 330.540 C 350.820 330.289,351.183 329.858,351.424 329.583 C 351.665 329.308,352.062 328.828,352.306 328.516 C 352.550 328.204,353.106 327.589,353.542 327.149 C 353.977 326.709,354.333 326.250,354.333 326.128 C 354.333 326.006,354.483 325.799,354.667 325.667 C 354.850 325.535,355.000 325.330,355.000 325.213 C 355.000 325.096,355.094 324.995,355.208 324.988 C 355.438 324.976,357.333 322.473,357.333 322.182 C 357.333 322.082,357.427 321.999,357.542 321.998 C 357.723 321.996,358.500 320.987,358.500 320.753 C 358.500 320.707,358.837 320.326,359.250 319.908 C 359.662 319.489,360.000 319.056,360.000 318.944 C 360.000 318.832,360.150 318.632,360.333 318.500 C 360.517 318.368,360.667 318.182,360.667 318.087 C 360.667 317.991,360.854 317.711,361.083 317.464 C 361.313 317.217,361.500 316.968,361.500 316.912 C 361.500 316.856,361.594 316.705,361.708 316.577 C 362.221 316.006,362.338 315.833,362.215 315.828 C 362.143 315.825,362.215 315.747,362.375 315.653 C 362.535 315.560,362.667 315.354,362.667 315.195 C 362.667 315.037,362.817 314.799,363.000 314.667 C 363.183 314.535,363.333 314.365,363.333 314.290 C 363.333 314.214,363.410 314.062,363.503 313.951 C 364.312 312.994,364.500 312.710,364.500 312.448 C 364.500 312.283,364.575 312.193,364.667 312.250 C 364.758 312.307,364.833 312.236,364.833 312.093 C 364.833 311.950,364.891 311.833,364.962 311.833 C 365.033 311.833,365.232 311.571,365.405 311.250 C 365.578 310.929,365.782 310.667,365.860 310.667 C 365.937 310.667,366.000 310.534,366.000 310.373 C 366.000 310.211,366.188 309.938,366.417 309.766 C 366.646 309.594,366.833 309.348,366.833 309.220 C 366.833 309.091,366.983 308.825,367.167 308.628 C 367.350 308.431,367.500 308.180,367.500 308.070 C 367.500 307.959,367.613 307.826,367.750 307.773 C 367.887 307.720,368.000 307.525,368.000 307.339 C 368.000 307.152,368.079 307.000,368.177 307.000 C 368.274 307.000,368.310 306.930,368.256 306.844 C 368.203 306.758,368.255 306.626,368.371 306.552 C 368.691 306.348,369.175 305.399,369.037 305.247 C 368.971 305.173,369.005 305.164,369.113 305.226 C 369.227 305.291,369.354 305.198,369.416 305.002 C 369.475 304.818,369.592 304.667,369.678 304.667 C 369.763 304.667,369.833 304.551,369.833 304.410 C 369.833 304.268,369.983 303.992,370.167 303.795 C 370.350 303.598,370.500 303.336,370.500 303.212 C 370.500 303.088,370.638 302.838,370.806 302.658 C 370.974 302.477,371.355 301.862,371.651 301.290 C 371.948 300.718,372.405 299.912,372.666 299.500 C 372.927 299.087,373.146 298.656,373.154 298.542 C 373.161 298.427,373.242 298.333,373.333 298.333 C 373.425 298.333,373.500 298.230,373.500 298.104 C 373.500 297.977,373.613 297.781,373.750 297.667 C 373.887 297.553,374.000 297.318,374.000 297.146 C 374.000 296.974,374.075 296.833,374.167 296.833 C 374.258 296.833,374.333 296.721,374.333 296.583 C 374.333 296.446,374.390 296.333,374.458 296.332 C 374.604 296.331,375.000 295.527,375.000 295.235 C 375.000 295.125,375.113 294.992,375.250 294.940 C 375.387 294.887,375.500 294.726,375.500 294.582 C 375.500 294.437,375.650 294.158,375.833 293.962 C 376.017 293.765,376.167 293.508,376.167 293.390 C 376.167 293.273,376.317 292.910,376.500 292.583 C 376.683 292.257,376.833 291.880,376.833 291.745 C 376.833 291.610,376.890 291.500,376.958 291.499 C 377.122 291.498,377.667 290.537,377.667 290.250 C 377.667 290.128,377.727 290.003,377.801 289.972 C 377.964 289.905,379.167 287.453,379.167 287.188 C 379.167 287.085,379.234 287.000,379.317 287.000 C 379.399 287.000,379.606 286.663,379.775 286.251 C 379.945 285.838,380.140 285.501,380.208 285.501 C 380.277 285.500,380.333 285.317,380.333 285.093 C 380.333 284.869,380.408 284.640,380.500 284.583 C 380.592 284.527,380.667 284.297,380.667 284.073 C 380.667 283.850,380.742 283.667,380.833 283.667 C 380.925 283.667,381.000 283.479,381.000 283.250 C 381.000 282.991,381.094 282.833,381.250 282.833 C 381.389 282.833,381.500 282.685,381.500 282.500 C 381.500 282.317,381.575 282.167,381.667 282.167 C 381.758 282.167,381.833 281.984,381.833 281.760 C 381.833 281.536,381.908 281.307,382.000 281.250 C 382.092 281.193,382.167 280.964,382.167 280.740 C 382.167 280.516,382.242 280.333,382.333 280.333 C 382.425 280.333,382.500 280.146,382.500 279.917 C 382.500 279.688,382.575 279.500,382.667 279.500 C 382.758 279.500,382.833 279.348,382.833 279.161 C 382.833 278.975,382.946 278.780,383.083 278.727 C 383.221 278.674,383.333 278.538,383.333 278.424 C 383.333 278.217,383.581 277.637,384.179 276.443 C 384.356 276.090,384.500 275.621,384.500 275.401 C 384.500 275.180,384.575 275.000,384.667 275.000 C 384.758 275.000,384.833 274.817,384.833 274.593 C 384.833 274.369,384.908 274.140,385.000 274.083 C 385.092 274.027,385.167 273.805,385.167 273.591 C 385.167 273.377,385.279 273.159,385.417 273.106 C 385.554 273.054,385.667 272.825,385.667 272.598 C 385.667 272.372,385.742 272.140,385.833 272.083 C 385.925 272.027,386.000 271.797,386.000 271.573 C 386.000 271.350,386.075 271.167,386.167 271.167 C 386.258 271.167,386.333 270.946,386.333 270.677 C 386.333 270.407,386.408 270.140,386.500 270.083 C 386.592 270.027,386.667 269.835,386.667 269.657 C 386.667 269.479,386.742 269.333,386.833 269.333 C 386.925 269.333,387.000 269.116,387.000 268.851 C 387.000 268.576,387.107 268.328,387.250 268.273 C 387.387 268.220,387.500 267.992,387.500 267.765 C 387.500 267.538,387.575 267.307,387.667 267.250 C 387.758 267.193,387.833 266.931,387.833 266.667 C 387.833 266.402,387.908 266.140,388.000 266.083 C 388.092 266.027,388.167 265.802,388.167 265.583 C 388.167 265.365,388.242 265.140,388.333 265.083 C 388.425 265.027,388.500 264.730,388.500 264.425 C 388.500 264.084,388.597 263.832,388.750 263.773 C 388.896 263.717,389.000 263.467,389.000 263.172 C 389.000 262.894,389.075 262.667,389.167 262.667 C 389.258 262.667,389.333 262.404,389.333 262.083 C 389.333 261.762,389.405 261.500,389.492 261.500 C 389.580 261.500,389.701 261.237,389.761 260.917 C 389.821 260.596,389.937 260.333,390.019 260.333 C 390.100 260.333,390.167 260.071,390.167 259.750 C 390.167 259.429,390.225 259.167,390.297 259.167 C 390.369 259.167,390.444 258.960,390.465 258.708 C 390.486 258.456,390.577 258.225,390.668 258.194 C 390.759 258.164,390.833 257.887,390.833 257.579 C 390.833 257.271,390.908 256.973,391.000 256.917 C 391.092 256.860,391.167 256.526,391.167 256.175 C 391.167 255.785,391.256 255.501,391.397 255.447 C 391.612 255.365,391.703 255.033,391.941 253.458 C 391.993 253.115,392.102 252.833,392.184 252.833 C 392.266 252.833,392.333 252.575,392.333 252.260 C 392.333 251.944,392.408 251.640,392.500 251.583 C 392.592 251.527,392.667 251.185,392.667 250.823 C 392.667 250.462,392.742 250.167,392.833 250.167 C 392.925 250.167,393.000 249.829,393.000 249.417 C 393.000 248.861,393.065 248.667,393.250 248.667 C 393.435 248.667,393.500 248.472,393.500 247.917 C 393.500 247.504,393.563 247.167,393.640 247.167 C 393.717 247.167,393.794 246.773,393.811 246.292 C 393.828 245.810,393.915 245.392,394.004 245.361 C 394.094 245.331,394.167 245.006,394.167 244.641 C 394.167 244.272,394.278 243.865,394.417 243.726 C 394.563 243.580,394.667 243.173,394.667 242.748 C 394.667 242.347,394.742 241.973,394.833 241.917 C 394.925 241.860,395.000 241.523,395.000 241.167 C 395.000 240.811,395.075 240.473,395.167 240.417 C 395.258 240.360,395.333 239.914,395.333 239.425 C 395.333 238.788,395.404 238.508,395.583 238.440 C 395.766 238.370,395.833 238.082,395.833 237.372 C 395.833 236.837,395.902 236.329,395.985 236.242 C 396.069 236.155,396.183 235.633,396.239 235.083 C 396.294 234.533,396.383 233.652,396.435 233.125 C 396.487 232.598,396.598 232.167,396.681 232.167 C 396.765 232.167,396.833 231.684,396.833 231.093 C 396.833 230.503,396.908 229.973,397.000 229.917 C 397.092 229.860,397.169 229.237,397.172 228.532 C 397.176 227.670,397.257 227.144,397.422 226.926 C 397.588 226.707,397.667 226.189,397.667 225.311 C 397.667 224.601,397.731 223.980,397.810 223.931 C 397.888 223.883,397.968 223.222,397.986 222.463 C 398.004 221.704,398.089 221.012,398.176 220.925 C 398.262 220.838,398.333 219.849,398.333 218.727 C 398.333 217.546,398.404 216.643,398.500 216.583 C 398.598 216.523,398.667 215.529,398.667 214.167 C 398.667 212.804,398.735 211.811,398.833 211.750 C 398.942 211.683,399.000 207.585,399.000 200.000 C 399.000 192.415,398.942 188.317,398.833 188.250 C 398.735 188.189,398.667 187.196,398.667 185.833 C 398.667 184.471,398.598 183.477,398.500 183.417 C 398.403 183.357,398.333 182.446,398.333 181.250 C 398.333 180.054,398.263 179.143,398.167 179.083 C 398.075 179.027,398.000 178.352,398.000 177.583 C 398.000 176.815,397.925 176.140,397.833 176.083 C 397.742 176.027,397.667 175.394,397.667 174.677 C 397.667 173.722,397.600 173.319,397.417 173.167 C 397.231 173.013,397.167 172.602,397.167 171.573 C 397.167 170.810,397.092 170.140,397.000 170.083 C 396.908 170.027,396.833 169.497,396.833 168.907 C 396.833 168.316,396.765 167.833,396.681 167.833 C 396.598 167.833,396.487 167.402,396.435 166.875 C 396.383 166.348,396.294 165.467,396.239 164.917 C 396.183 164.367,396.069 163.845,395.985 163.758 C 395.902 163.671,395.833 163.163,395.833 162.628 C 395.833 161.918,395.766 161.630,395.583 161.560 C 395.404 161.491,395.333 161.211,395.333 160.566 C 395.333 160.071,395.258 159.667,395.167 159.667 C 395.075 159.667,395.000 159.334,395.000 158.927 C 395.000 158.519,394.925 158.140,394.833 158.083 C 394.742 158.027,394.667 157.653,394.667 157.252 C 394.667 156.827,394.563 156.420,394.417 156.274 C 394.278 156.135,394.167 155.728,394.167 155.359 C 394.167 154.994,394.096 154.669,394.009 154.639 C 393.922 154.608,393.833 154.223,393.811 153.782 C 393.788 153.341,393.709 152.943,393.635 152.897 C 393.561 152.851,393.500 152.516,393.500 152.152 C 393.500 151.717,393.414 151.457,393.250 151.394 C 393.080 151.328,393.000 151.063,393.000 150.566 C 393.000 150.163,392.925 149.833,392.833 149.833 C 392.742 149.833,392.667 149.571,392.667 149.250 C 392.667 148.929,392.592 148.667,392.500 148.667 C 392.408 148.667,392.333 148.371,392.333 148.010 C 392.333 147.649,392.258 147.307,392.167 147.250 C 392.075 147.193,392.000 146.893,392.000 146.583 C 392.000 146.273,391.925 145.973,391.833 145.917 C 391.742 145.860,391.667 145.553,391.667 145.235 C 391.667 144.874,391.572 144.620,391.417 144.560 C 391.254 144.498,391.167 144.238,391.167 143.816 C 391.167 143.459,391.092 143.167,391.000 143.167 C 390.908 143.167,390.833 142.909,390.833 142.593 C 390.833 142.278,390.758 141.973,390.667 141.917 C 390.575 141.860,390.500 141.593,390.500 141.323 C 390.500 141.054,390.425 140.833,390.333 140.833 C 390.242 140.833,390.167 140.571,390.167 140.250 C 390.167 139.929,390.100 139.667,390.019 139.667 C 389.938 139.667,389.834 139.460,389.788 139.208 C 389.698 138.715,389.378 137.763,389.144 137.294 C 389.065 137.135,389.000 136.863,389.000 136.689 C 389.000 136.516,388.887 136.281,388.750 136.167 C 388.613 136.053,388.500 135.748,388.500 135.489 C 388.500 135.231,388.425 134.973,388.333 134.917 C 388.242 134.860,388.167 134.556,388.167 134.240 C 388.167 133.925,388.092 133.667,388.000 133.667 C 387.908 133.667,387.833 133.442,387.833 133.167 C 387.833 132.892,387.758 132.667,387.667 132.667 C 387.575 132.667,387.500 132.477,387.500 132.245 C 387.500 132.013,387.387 131.780,387.250 131.727 C 387.107 131.672,387.000 131.424,387.000 131.149 C 387.000 130.884,386.943 130.667,386.874 130.667 C 386.736 130.667,386.333 129.490,386.333 129.086 C 386.333 128.947,386.258 128.833,386.167 128.833 C 386.075 128.833,385.999 128.702,385.997 128.542 C 385.993 128.076,385.553 126.934,385.351 126.867 C 385.250 126.833,385.167 126.593,385.167 126.333 C 385.167 126.074,385.088 125.835,384.993 125.803 C 384.897 125.771,384.806 125.577,384.790 125.373 C 384.775 125.168,384.703 125.000,384.631 125.000 C 384.559 125.000,384.500 124.820,384.500 124.599 C 384.500 124.379,384.353 123.910,384.174 123.557 C 383.995 123.205,383.693 122.560,383.504 122.125 C 383.314 121.690,383.085 121.333,382.996 121.333 C 382.906 121.333,382.833 121.146,382.833 120.917 C 382.833 120.688,382.758 120.500,382.667 120.500 C 382.575 120.500,382.500 120.313,382.500 120.083 C 382.500 119.854,382.425 119.667,382.333 119.667 C 382.242 119.667,382.167 119.521,382.167 119.343 C 382.167 119.165,382.092 118.973,382.000 118.917 C 381.908 118.860,381.833 118.680,381.833 118.516 C 381.833 118.124,381.352 117.167,381.154 117.167 C 381.070 117.167,381.000 116.979,381.000 116.750 C 381.000 116.521,380.925 116.333,380.833 116.333 C 380.742 116.333,380.667 116.188,380.667 116.010 C 380.667 115.832,380.592 115.640,380.500 115.583 C 380.408 115.527,380.335 115.354,380.336 115.198 C 380.338 114.937,379.532 113.187,379.323 113.000 C 379.174 112.867,378.000 110.355,378.000 110.169 C 378.000 110.076,377.925 110.000,377.833 110.000 C 377.742 110.000,377.667 109.850,377.667 109.667 C 377.667 109.483,377.600 109.333,377.518 109.333 C 377.436 109.333,377.322 109.146,377.265 108.917 C 377.207 108.688,377.087 108.500,376.997 108.500 C 376.907 108.500,376.833 108.350,376.833 108.167 C 376.833 107.983,376.758 107.833,376.667 107.833 C 376.575 107.833,376.500 107.688,376.500 107.510 C 376.500 107.332,376.425 107.140,376.333 107.083 C 376.242 107.027,376.167 106.835,376.167 106.657 C 376.167 106.479,376.092 106.333,376.000 106.333 C 375.908 106.333,375.833 106.221,375.833 106.083 C 375.833 105.946,375.758 105.833,375.667 105.833 C 375.575 105.833,375.500 105.683,375.500 105.500 C 375.500 105.315,375.389 105.167,375.250 105.167 C 375.094 105.167,375.000 105.009,375.000 104.750 C 375.000 104.521,374.925 104.333,374.833 104.333 C 374.742 104.333,374.667 104.183,374.667 104.000 C 374.667 103.817,374.609 103.667,374.539 103.667 C 374.469 103.667,374.263 103.356,374.081 102.975 C 373.554 101.874,373.429 101.667,373.294 101.667 C 373.224 101.667,373.167 101.517,373.167 101.333 C 373.167 101.150,373.097 101.000,373.013 101.000 C 372.928 101.000,372.775 100.744,372.672 100.431 C 372.568 100.119,372.375 99.821,372.242 99.770 C 372.109 99.719,372.000 99.562,372.000 99.422 C 372.000 99.282,371.925 99.167,371.833 99.167 C 371.742 99.167,371.667 98.979,371.667 98.750 C 371.667 98.521,371.592 98.333,371.500 98.333 C 371.408 98.333,371.333 98.266,371.333 98.183 C 371.333 98.101,371.071 97.643,370.750 97.167 C 370.429 96.690,370.167 96.214,370.166 96.108 C 370.166 96.003,369.979 95.699,369.750 95.432 C 369.521 95.166,369.333 94.864,369.333 94.761 C 369.333 94.658,369.183 94.465,369.000 94.333 C 368.817 94.201,368.667 93.960,368.667 93.797 C 368.667 93.633,368.609 93.500,368.539 93.500 C 368.469 93.500,368.282 93.200,368.123 92.833 C 367.964 92.467,367.759 92.167,367.667 92.167 C 367.575 92.167,367.500 92.068,367.500 91.948 C 367.500 91.828,367.350 91.569,367.167 91.372 C 366.983 91.175,366.833 90.954,366.833 90.880 C 366.833 90.807,366.646 90.544,366.417 90.297 C 366.188 90.050,366.000 89.732,366.000 89.591 C 366.000 89.449,365.937 89.333,365.860 89.333 C 365.782 89.333,365.578 89.071,365.405 88.750 C 365.232 88.429,365.033 88.167,364.962 88.167 C 364.891 88.167,364.833 88.054,364.833 87.917 C 364.833 87.779,364.758 87.667,364.667 87.667 C 364.575 87.667,364.500 87.554,364.500 87.417 C 364.500 87.279,364.425 87.167,364.333 87.167 C 364.242 87.167,364.167 87.082,364.167 86.977 C 364.167 86.873,363.979 86.614,363.750 86.402 C 363.521 86.190,363.333 85.916,363.333 85.795 C 363.333 85.673,363.183 85.465,363.000 85.333 C 362.817 85.201,362.667 84.960,362.667 84.797 C 362.667 84.633,362.594 84.500,362.505 84.500 C 362.416 84.500,362.078 84.085,361.753 83.577 C 361.429 83.070,361.052 82.612,360.915 82.560 C 360.778 82.507,360.667 82.322,360.667 82.149 C 360.667 81.975,360.592 81.833,360.500 81.833 C 360.408 81.833,360.333 81.737,360.333 81.620 C 360.333 81.503,360.183 81.299,360.000 81.167 C 359.817 81.035,359.667 80.846,359.667 80.748 C 359.667 80.650,359.404 80.291,359.083 79.951 C 358.762 79.611,358.500 79.294,358.500 79.247 C 358.500 79.067,357.743 78.004,357.613 78.002 C 357.405 77.999,357.000 77.550,357.000 77.323 C 357.000 77.212,356.794 76.930,356.542 76.697 C 356.290 76.463,356.121 76.260,356.167 76.244 C 356.238 76.221,355.166 74.900,354.542 74.243 C 354.427 74.122,354.333 73.937,354.333 73.831 C 354.333 73.725,353.938 73.251,353.455 72.777 C 352.972 72.304,352.353 71.617,352.081 71.250 C 351.808 70.883,351.547 70.546,351.501 70.500 C 351.278 70.280,350.197 69.008,349.766 68.460 C 349.500 68.122,349.219 67.884,349.141 67.932 C 349.064 67.980,349.000 67.919,349.000 67.797 C 349.000 67.674,348.850 67.465,348.667 67.333 C 348.483 67.201,348.333 67.028,348.333 66.949 C 348.333 66.870,348.087 66.566,347.786 66.274 C 347.485 65.982,347.117 65.569,346.969 65.357 C 346.627 64.870,343.370 61.500,343.240 61.500 C 343.118 61.500,342.667 61.054,342.667 60.934 C 342.667 60.730,341.433 59.522,341.305 59.601 C 341.229 59.648,341.167 59.600,341.167 59.495 C 341.167 59.256,338.913 57.000,338.675 57.000 C 338.579 57.000,338.500 56.923,338.500 56.828 C 338.500 56.646,337.416 55.500,337.244 55.500 C 337.109 55.500,336.667 55.052,336.667 54.917 C 336.667 54.724,336.209 54.347,336.103 54.452 C 336.046 54.509,336.000 54.431,336.000 54.278 C 336.000 54.125,335.944 54.000,335.875 54.000 C 335.806 53.999,335.286 53.549,334.720 53.000 C 334.153 52.450,333.609 52.000,333.511 52.000 C 333.413 52.000,333.333 51.925,333.333 51.833 C 333.333 51.742,333.255 51.667,333.159 51.667 C 332.948 51.667,332.167 50.907,332.167 50.702 C 332.167 50.622,331.979 50.456,331.750 50.333 C 331.521 50.211,331.333 50.048,331.333 49.972 C 331.333 49.896,331.229 49.833,331.102 49.833 C 330.974 49.833,330.468 49.438,329.977 48.956 C 329.485 48.473,328.783 47.854,328.417 47.581 C 328.050 47.307,327.518 46.841,327.233 46.545 C 326.949 46.248,326.668 46.055,326.608 46.114 C 326.549 46.174,326.500 46.104,326.500 45.958 C 326.500 45.813,326.275 45.595,326.000 45.473 C 325.725 45.352,325.500 45.195,325.500 45.126 C 325.500 45.057,325.387 45.000,325.250 45.000 C 325.112 45.000,325.000 44.894,325.000 44.764 C 325.000 44.634,324.775 44.428,324.500 44.307 C 324.225 44.185,324.000 44.029,324.000 43.959 C 324.000 43.890,323.905 43.833,323.790 43.833 C 323.674 43.833,323.438 43.646,323.266 43.417 C 323.094 43.188,322.851 43.000,322.727 43.000 C 322.602 43.000,322.500 42.925,322.500 42.833 C 322.500 42.742,322.387 42.667,322.250 42.667 C 322.112 42.667,322.000 42.568,322.000 42.447 C 322.000 42.327,321.688 42.053,321.306 41.838 C 320.925 41.624,320.347 41.197,320.022 40.891 C 319.697 40.584,319.370 40.333,319.297 40.333 C 319.224 40.333,318.928 40.108,318.640 39.833 C 318.353 39.558,318.008 39.333,317.874 39.333 C 317.741 39.333,317.484 39.146,317.304 38.917 C 317.123 38.688,316.885 38.500,316.775 38.500 C 316.665 38.500,316.328 38.275,316.027 38.000 C 315.726 37.725,315.412 37.500,315.331 37.500 C 315.249 37.500,314.994 37.313,314.765 37.083 C 314.536 36.854,314.233 36.667,314.091 36.667 C 313.949 36.667,313.833 36.599,313.833 36.515 C 313.833 36.432,313.496 36.151,313.084 35.890 C 312.671 35.630,312.334 35.360,312.334 35.292 C 312.333 35.223,312.221 35.167,312.083 35.167 C 311.946 35.167,311.833 35.092,311.833 35.000 C 311.833 34.908,311.739 34.833,311.623 34.833 C 311.508 34.833,311.211 34.646,310.964 34.417 C 310.717 34.187,310.399 34.000,310.257 34.000 C 310.116 34.000,310.000 33.925,310.000 33.833 C 310.000 33.742,309.887 33.667,309.750 33.667 C 309.612 33.667,309.500 33.592,309.500 33.500 C 309.500 33.408,309.358 33.333,309.184 33.333 C 309.011 33.333,308.826 33.221,308.773 33.083 C 308.720 32.946,308.562 32.833,308.422 32.833 C 308.282 32.833,308.167 32.774,308.167 32.701 C 308.167 32.629,307.660 32.275,307.042 31.916 C 306.423 31.557,305.892 31.203,305.861 31.131 C 305.831 31.059,305.699 31.000,305.569 31.000 C 305.440 31.000,305.333 30.934,305.333 30.853 C 305.333 30.772,305.202 30.661,305.042 30.608 C 304.692 30.490,304.221 30.188,303.769 29.792 C 303.587 29.631,303.301 29.500,303.135 29.500 C 302.969 29.500,302.833 29.437,302.833 29.360 C 302.833 29.282,302.571 29.078,302.250 28.905 C 301.929 28.732,301.667 28.533,301.667 28.462 C 301.667 28.391,301.569 28.333,301.450 28.333 C 301.143 28.333,300.336 27.941,300.335 27.792 C 300.334 27.723,300.221 27.667,300.083 27.667 C 299.946 27.667,299.833 27.592,299.833 27.500 C 299.833 27.408,299.646 27.333,299.417 27.333 C 299.157 27.333,299.000 27.239,299.000 27.083 C 299.000 26.944,298.852 26.833,298.667 26.833 C 298.483 26.833,298.333 26.758,298.333 26.667 C 298.333 26.575,298.190 26.500,298.014 26.500 C 297.838 26.500,297.669 26.444,297.639 26.375 C 297.542 26.156,296.184 25.333,295.920 25.333 C 295.781 25.333,295.667 25.258,295.667 25.167 C 295.667 25.075,295.551 25.000,295.410 25.000 C 295.268 25.000,295.011 24.869,294.838 24.708 C 294.664 24.548,294.274 24.297,293.970 24.150 C 293.665 24.003,293.091 23.722,292.693 23.525 C 292.294 23.328,291.863 23.167,291.734 23.167 C 291.605 23.167,291.500 23.110,291.499 23.042 C 291.498 22.874,290.534 22.333,290.236 22.333 C 290.106 22.333,290.000 22.258,290.000 22.167 C 290.000 22.075,289.854 22.000,289.677 22.000 C 289.499 22.000,289.307 21.925,289.250 21.833 C 289.193 21.742,289.001 21.667,288.823 21.667 C 288.646 21.667,288.500 21.592,288.500 21.500 C 288.500 21.408,288.358 21.333,288.184 21.333 C 288.011 21.333,287.826 21.221,287.773 21.083 C 287.720 20.946,287.531 20.833,287.352 20.833 C 287.174 20.833,287.003 20.775,286.972 20.703 C 286.942 20.631,286.467 20.360,285.917 20.101 C 285.367 19.842,284.786 19.563,284.627 19.481 C 284.468 19.400,284.187 19.333,284.002 19.333 C 283.818 19.333,283.667 19.258,283.667 19.167 C 283.667 19.075,283.487 19.000,283.268 19.000 C 283.048 19.000,282.826 18.887,282.773 18.750 C 282.720 18.612,282.525 18.500,282.339 18.500 C 282.152 18.500,282.000 18.425,282.000 18.333 C 282.000 18.242,281.854 18.167,281.677 18.167 C 281.499 18.167,281.307 18.092,281.250 18.000 C 281.193 17.908,280.964 17.833,280.740 17.833 C 280.516 17.833,280.333 17.758,280.333 17.667 C 280.333 17.575,280.146 17.500,279.917 17.500 C 279.688 17.500,279.500 17.425,279.500 17.333 C 279.500 17.242,279.359 17.167,279.187 17.167 C 279.015 17.167,278.781 17.054,278.667 16.917 C 278.553 16.779,278.390 16.667,278.305 16.667 C 278.220 16.667,277.840 16.517,277.461 16.333 C 277.081 16.150,276.635 16.000,276.469 16.000 C 276.303 16.000,276.167 15.925,276.167 15.833 C 276.167 15.742,275.912 15.667,275.601 15.667 C 275.252 15.667,274.999 15.571,274.940 15.417 C 274.887 15.279,274.691 15.167,274.505 15.167 C 274.319 15.167,274.167 15.092,274.167 15.000 C 274.167 14.908,273.942 14.833,273.667 14.833 C 273.392 14.833,273.167 14.769,273.167 14.689 C 273.167 14.521,271.871 14.000,271.453 14.000 C 271.295 14.000,271.167 13.925,271.167 13.833 C 271.167 13.742,271.053 13.667,270.914 13.667 C 270.510 13.667,269.333 13.264,269.333 13.126 C 269.333 13.057,269.071 13.000,268.750 13.000 C 268.414 13.000,268.184 12.923,268.208 12.818 C 268.231 12.718,267.875 12.524,267.417 12.387 C 266.958 12.249,266.453 12.069,266.294 11.985 C 266.135 11.902,265.820 11.833,265.595 11.833 C 265.370 11.833,265.140 11.758,265.083 11.667 C 265.027 11.575,264.760 11.500,264.490 11.500 C 264.221 11.500,264.000 11.425,264.000 11.333 C 264.000 11.242,263.746 11.167,263.434 11.167 C 263.086 11.167,262.832 11.071,262.773 10.917 C 262.720 10.779,262.549 10.667,262.392 10.667 C 262.027 10.667,261.044 10.357,260.474 10.062 C 260.231 9.936,259.879 9.833,259.692 9.833 C 259.506 9.833,259.307 9.758,259.250 9.667 C 259.193 9.575,258.968 9.500,258.750 9.500 C 258.532 9.500,258.307 9.425,258.250 9.333 C 258.193 9.242,257.893 9.167,257.583 9.167 C 257.273 9.167,256.973 9.092,256.917 9.000 C 256.860 8.908,256.524 8.833,256.171 8.833 C 255.817 8.833,255.500 8.751,255.467 8.651 C 255.412 8.486,254.848 8.321,253.417 8.052 C 253.142 8.000,252.842 7.907,252.750 7.845 C 252.658 7.783,252.321 7.711,252.000 7.684 C 251.679 7.658,251.392 7.568,251.361 7.485 C 251.331 7.401,251.054 7.333,250.746 7.333 C 250.438 7.333,250.140 7.258,250.083 7.167 C 250.027 7.075,249.693 7.000,249.341 7.000 C 248.927 7.000,248.669 6.912,248.606 6.750 C 248.541 6.579,248.274 6.500,247.765 6.500 C 247.355 6.500,246.973 6.425,246.917 6.333 C 246.860 6.242,246.485 6.167,246.083 6.167 C 245.682 6.167,245.307 6.092,245.250 6.000 C 245.193 5.908,244.818 5.833,244.417 5.833 C 244.015 5.833,243.640 5.758,243.583 5.667 C 243.527 5.575,243.147 5.500,242.740 5.500 C 242.333 5.500,242.000 5.425,242.000 5.333 C 242.000 5.242,241.671 5.167,241.268 5.167 C 240.771 5.167,240.505 5.086,240.440 4.917 C 240.371 4.737,240.089 4.667,239.436 4.667 C 238.925 4.667,238.501 4.587,238.467 4.484 C 238.433 4.383,237.900 4.260,237.282 4.211 C 236.664 4.161,236.118 4.056,236.069 3.977 C 236.020 3.898,235.614 3.833,235.167 3.833 C 234.719 3.833,234.311 3.766,234.260 3.683 C 234.209 3.600,233.781 3.529,233.309 3.525 C 232.838 3.522,232.373 3.440,232.276 3.343 C 232.179 3.246,231.707 3.167,231.227 3.167 C 230.746 3.167,230.307 3.092,230.250 3.000 C 230.193 2.908,229.529 2.833,228.773 2.833 C 227.897 2.833,227.325 2.758,227.192 2.625 C 226.990 2.422,225.555 2.245,222.667 2.065 C 221.887 2.016,221.179 1.907,221.092 1.822 C 221.005 1.736,220.015 1.667,218.893 1.667 C 217.713 1.667,216.810 1.596,216.750 1.500 C 216.688 1.400,215.526 1.333,213.823 1.333 C 212.052 1.333,211.000 1.271,211.000 1.167 C 211.000 1.057,207.222 1.000,200.000 1.000 C 192.778 1.000,189.000 1.057,189.000 1.167 M86.350 161.056 C 94.486 163.667,94.590 176.105,86.500 179.085 C 84.748 179.731,81.359 179.785,79.635 179.195 C 71.079 176.266,71.833 162.918,80.667 160.917 C 81.995 160.616,85.225 160.695,86.350 161.056 M349.459 176.304 L 349.502 189.997 350.535 189.164 C 355.530 185.139,364.344 184.121,370.667 186.838 C 382.241 191.813,381.133 209.308,368.879 215.042 C 368.203 215.358,367.843 215.619,367.896 215.755 C 367.941 215.873,371.208 221.104,375.156 227.380 C 379.103 233.655,382.333 238.875,382.333 238.978 C 382.333 239.116,379.789 239.167,372.851 239.167 L 363.369 239.167 362.368 237.458 C 356.577 227.574,352.454 217.599,351.903 212.141 L 351.791 211.032 352.712 210.841 C 358.196 209.703,362.006 206.355,361.998 202.682 C 361.982 195.354,353.237 196.168,350.052 203.794 L 349.583 204.917 349.500 222.000 L 349.417 239.083 341.042 239.127 L 332.667 239.170 332.667 202.281 L 332.667 165.391 334.292 165.112 C 335.185 164.958,337.717 164.526,339.917 164.153 C 342.117 163.779,345.079 163.264,346.500 163.008 C 347.921 162.752,349.158 162.558,349.250 162.577 C 349.359 162.599,349.431 167.344,349.459 176.304 M68.627 174.042 L 68.583 180.417 54.625 180.459 L 40.667 180.502 40.667 188.501 L 40.667 196.500 52.306 196.500 C 58.707 196.500,63.985 196.540,64.034 196.590 C 64.083 196.639,64.066 196.995,63.995 197.381 C 63.804 198.415,63.489 200.287,63.329 201.333 C 63.137 202.593,62.189 208.145,62.070 208.708 L 61.974 209.167 51.321 209.167 L 40.668 209.167 40.626 224.125 L 40.583 239.083 31.875 239.126 L 23.167 239.170 23.167 203.418 L 23.167 167.667 45.919 167.667 L 68.671 167.667 68.627 174.042 M196.610 168.458 C 196.553 168.894,196.398 169.850,196.265 170.583 C 195.753 173.408,194.967 177.962,194.824 178.934 C 194.742 179.493,194.628 180.075,194.570 180.226 C 194.474 180.475,193.727 180.500,186.316 180.500 L 178.168 180.500 178.125 209.792 L 178.083 239.083 169.375 239.126 L 160.667 239.170 160.667 209.835 L 160.667 180.500 152.167 180.500 L 143.667 180.500 143.667 174.083 L 143.667 167.667 170.190 167.667 L 196.713 167.667 196.610 168.458 M313.725 185.172 C 318.127 185.676,321.844 187.495,324.976 190.677 C 326.914 192.646,327.179 192.001,322.423 196.901 L 318.299 201.152 317.094 199.912 C 315.415 198.183,314.235 197.648,312.087 197.644 C 306.262 197.632,303.333 202.445,303.333 212.030 C 303.333 225.680,309.112 229.999,321.479 225.593 C 322.549 225.212,322.553 225.215,322.966 226.708 C 324.126 230.907,324.599 232.612,325.103 234.400 C 325.763 236.747,325.899 236.504,323.379 237.500 C 311.701 242.116,298.269 240.415,291.784 233.500 C 285.254 226.536,283.447 211.937,287.718 200.646 C 291.749 189.990,302.087 183.838,313.725 185.172 M203.003 186.458 C 203.996 187.798,205.668 191.118,206.172 192.750 C 206.779 194.719,206.710 194.657,207.245 193.735 C 211.058 187.164,217.095 184.363,224.793 185.593 C 228.033 186.110,228.562 186.346,228.327 187.171 C 228.236 187.489,227.752 189.287,227.251 191.167 C 226.750 193.046,226.236 194.958,226.108 195.417 C 225.981 195.875,225.745 196.737,225.584 197.333 C 225.423 197.929,225.124 199.017,224.919 199.750 C 224.714 200.483,224.458 201.402,224.350 201.792 C 224.242 202.181,224.128 202.500,224.098 202.500 C 224.067 202.500,223.706 202.351,223.295 202.169 C 218.139 199.889,213.302 202.579,211.465 208.750 C 211.321 209.233,211.241 213.497,211.175 224.250 L 211.083 239.083 202.708 239.127 L 194.333 239.170 194.333 224.707 C 194.333 216.753,194.257 209.046,194.164 207.580 C 193.696 200.242,192.059 194.444,189.402 190.720 C 188.997 190.154,188.667 189.654,188.667 189.611 C 188.667 189.525,189.971 189.091,194.750 187.586 C 196.400 187.066,198.612 186.355,199.667 186.006 C 202.188 185.170,202.031 185.148,203.003 186.458 M259.942 185.578 C 262.378 185.836,263.845 186.038,266.167 186.434 C 268.580 186.846,269.151 186.957,272.532 187.677 L 275.814 188.376 275.882 203.730 C 275.953 219.587,275.979 220.252,276.675 223.833 C 277.541 228.284,279.079 232.320,280.743 234.508 C 281.159 235.056,281.500 235.564,281.500 235.638 C 281.500 235.712,279.419 236.426,276.875 237.223 C 274.331 238.021,271.322 238.967,270.188 239.325 L 268.127 239.977 267.638 239.447 C 265.944 237.610,264.201 234.091,263.288 230.667 L 263.044 229.750 262.770 230.417 C 260.213 236.651,255.507 239.718,248.500 239.717 C 235.603 239.716,228.331 230.301,228.334 213.610 C 228.337 198.333,236.755 187.903,251.000 185.526 C 252.460 185.282,257.427 185.311,259.942 185.578 M91.538 205.375 C 91.582 224.374,91.590 224.763,91.917 225.406 C 92.578 226.707,93.721 227.024,96.268 226.613 L 97.118 226.475 97.300 227.446 C 97.400 227.980,97.602 229.317,97.748 230.417 C 97.894 231.517,98.119 233.129,98.247 234.000 C 98.736 237.325,98.779 236.938,97.876 237.393 C 94.199 239.250,87.528 240.028,83.833 239.032 C 78.799 237.675,75.723 234.514,74.912 229.863 C 74.654 228.382,74.525 186.364,74.778 186.111 C 74.839 186.050,78.625 186.000,83.191 186.000 L 91.493 186.000 91.538 205.375 M120.139 188.458 C 120.806 189.535,122.222 191.804,123.285 193.500 C 125.002 196.237,125.980 198.026,127.108 200.495 L 127.449 201.239 128.150 199.995 C 130.604 195.643,132.957 190.163,133.497 187.542 L 133.712 186.500 142.439 186.500 C 147.239 186.500,151.164 186.556,151.161 186.625 C 151.124 187.409,150.141 190.485,149.204 192.750 C 146.675 198.864,143.389 204.019,138.688 209.249 L 136.872 211.269 140.906 217.843 C 143.125 221.458,146.901 227.610,149.298 231.514 C 151.695 235.417,153.704 238.736,153.762 238.889 C 153.861 239.146,153.184 239.167,144.613 239.167 L 135.356 239.167 135.037 238.708 C 134.416 237.818,127.190 225.065,126.549 223.729 L 125.900 222.375 124.915 224.313 C 123.869 226.369,123.254 227.435,118.960 234.619 L 116.250 239.155 107.042 239.161 C 101.977 239.164,97.833 239.127,97.833 239.079 C 97.833 239.000,99.651 236.136,102.194 232.208 C 102.713 231.406,103.521 230.150,103.989 229.417 C 104.751 228.223,105.605 226.894,108.655 222.156 C 109.153 221.383,109.949 220.150,110.423 219.417 C 113.593 214.520,115.348 211.784,115.501 211.499 C 115.674 211.176,114.714 209.579,109.085 200.833 C 108.702 200.237,106.938 197.463,105.167 194.667 C 103.395 191.871,101.559 188.983,101.087 188.250 C 100.615 187.517,100.173 186.823,100.104 186.708 C 100.006 186.543,101.920 186.500,109.454 186.500 L 118.927 186.500 120.139 188.458 M252.750 197.904 C 249.429 198.735,247.564 201.206,246.555 206.118 C 245.857 209.514,246.189 220.473,247.079 223.385 C 248.854 229.198,254.205 228.445,256.917 222.000 C 258.660 217.859,258.878 216.220,258.960 206.651 L 259.029 198.553 258.556 198.362 C 256.984 197.727,254.301 197.515,252.750 197.904 " stroke="none" fill="#0c142c" fill-rule="evenodd"></path><path id="path2" d="M349.413 176.417 C 349.413 184.025,349.433 187.162,349.458 183.387 C 349.483 179.613,349.483 173.388,349.458 169.554 C 349.433 165.720,349.413 168.808,349.413 176.417 M68.576 174.083 C 68.576 177.567,68.598 179.015,68.625 177.303 C 68.652 175.590,68.652 172.740,68.625 170.969 C 68.598 169.199,68.576 170.600,68.576 174.083 M40.577 188.583 C 40.577 193.075,40.599 194.889,40.625 192.613 C 40.651 190.338,40.651 186.663,40.625 184.447 C 40.599 182.230,40.577 184.092,40.577 188.583 M74.747 207.083 C 74.747 218.633,74.767 223.334,74.792 217.529 C 74.816 211.724,74.816 202.274,74.792 196.529 C 74.767 190.784,74.747 195.533,74.747 207.083 M324.240 194.875 L 323.750 195.417 324.292 194.927 C 324.797 194.471,324.910 194.333,324.781 194.333 C 324.752 194.333,324.509 194.577,324.240 194.875 M275.705 195.833 C 275.705 196.154,275.740 196.285,275.782 196.125 C 275.823 195.965,275.823 195.702,275.782 195.542 C 275.740 195.381,275.705 195.512,275.705 195.833 M259.000 204.967 L 259.083 211.583 259.127 205.094 C 259.151 201.524,259.113 198.547,259.044 198.477 C 258.974 198.407,258.954 201.327,259.000 204.967 M275.705 202.833 C 275.705 203.154,275.740 203.285,275.782 203.125 C 275.823 202.965,275.823 202.702,275.782 202.542 C 275.740 202.381,275.705 202.512,275.705 202.833 M349.413 222.417 C 349.413 231.583,349.434 235.358,349.458 230.804 C 349.483 226.251,349.483 218.751,349.458 214.138 C 349.434 209.524,349.414 213.250,349.413 222.417 M40.580 224.083 C 40.580 232.333,40.600 235.684,40.625 231.529 C 40.650 227.374,40.650 220.624,40.625 216.529 C 40.600 212.434,40.580 215.833,40.580 224.083 M246.042 210.750 C 246.044 211.117,246.078 211.247,246.118 211.040 C 246.158 210.832,246.156 210.532,246.115 210.373 C 246.073 210.214,246.040 210.383,246.042 210.750 M303.225 211.833 C 303.225 212.612,303.254 212.931,303.289 212.542 C 303.324 212.152,303.324 211.515,303.289 211.125 C 303.254 210.735,303.225 211.054,303.225 211.833 M373.740 211.542 L 373.250 212.083 373.792 211.594 C 374.297 211.138,374.410 211.000,374.281 211.000 C 374.252 211.000,374.009 211.244,373.740 211.542 M246.062 213.583 C 246.063 214.592,246.090 214.983,246.123 214.452 C 246.157 213.922,246.156 213.097,246.123 212.619 C 246.089 212.141,246.062 212.575,246.062 213.583 M77.500 235.385 C 77.500 235.414,77.744 235.658,78.042 235.927 L 78.583 236.417 78.094 235.875 C 77.638 235.370,77.500 235.257,77.500 235.385 M259.073 235.875 L 258.583 236.417 259.125 235.927 C 259.630 235.471,259.743 235.333,259.615 235.333 C 259.586 235.333,259.342 235.577,259.073 235.875 " stroke="none" fill="#20577b" fill-rule="evenodd"></path><path id="path3" d="M332.749 202.250 C 332.749 222.508,332.768 230.821,332.792 220.722 C 332.815 210.623,332.815 194.048,332.792 183.888 C 332.768 173.729,332.749 181.992,332.749 202.250 M34.458 167.792 C 40.715 167.816,50.952 167.816,57.208 167.792 C 63.465 167.767,58.346 167.748,45.833 167.748 C 33.321 167.748,28.202 167.767,34.458 167.792 M143.743 167.876 C 143.699 167.991,143.682 170.859,143.706 174.251 L 143.750 180.417 152.250 180.419 L 160.750 180.421 152.292 180.376 L 143.833 180.330 143.833 174.082 L 143.833 167.834 170.292 167.792 L 196.750 167.749 170.286 167.708 C 149.194 167.675,143.807 167.709,143.743 167.876 M73.709 170.417 C 73.711 170.783,73.745 170.914,73.785 170.706 C 73.824 170.499,73.823 170.199,73.781 170.040 C 73.739 169.880,73.707 170.050,73.709 170.417 M182.137 180.458 C 184.458 180.484,188.208 180.484,190.470 180.458 C 192.732 180.432,190.833 180.411,186.250 180.411 C 181.667 180.411,179.816 180.432,182.137 180.458 M310.455 185.120 C 310.750 185.157,311.275 185.158,311.621 185.122 C 311.967 185.086,311.725 185.055,311.083 185.055 C 310.442 185.054,310.159 185.083,310.455 185.120 M220.792 185.455 C 221.181 185.490,221.819 185.490,222.208 185.455 C 222.598 185.420,222.279 185.392,221.500 185.392 C 220.721 185.392,220.402 185.420,220.792 185.455 M253.958 185.457 C 254.531 185.489,255.469 185.489,256.042 185.457 C 256.615 185.424,256.146 185.398,255.000 185.398 C 253.854 185.398,253.385 185.424,253.958 185.457 M362.380 185.456 C 362.818 185.490,363.493 185.490,363.880 185.455 C 364.267 185.420,363.908 185.392,363.083 185.392 C 362.258 185.393,361.942 185.422,362.380 185.456 M91.414 205.083 C 91.414 215.533,91.434 219.833,91.458 214.638 C 91.483 209.443,91.483 200.893,91.458 195.638 C 91.434 190.383,91.414 194.633,91.414 205.083 M324.417 190.333 C 324.868 190.792,325.275 191.167,325.321 191.167 C 325.367 191.167,325.035 190.792,324.583 190.333 C 324.132 189.875,323.725 189.500,323.679 189.500 C 323.633 189.500,323.965 189.875,324.417 190.333 M293.161 192.125 L 292.250 193.083 293.208 192.172 C 293.735 191.671,294.167 191.240,294.167 191.214 C 294.167 191.090,294.007 191.235,293.161 192.125 M322.579 196.542 L 321.417 197.750 322.625 196.588 C 323.747 195.508,323.909 195.333,323.787 195.333 C 323.762 195.333,323.218 195.877,322.579 196.542 M378.559 199.583 C 378.559 200.408,378.587 200.767,378.622 200.380 C 378.657 199.993,378.657 199.318,378.623 198.880 C 378.588 198.442,378.560 198.758,378.559 199.583 M316.917 199.667 C 317.368 200.125,317.775 200.500,317.821 200.500 C 317.867 200.500,317.535 200.125,317.083 199.667 C 316.632 199.208,316.225 198.833,316.179 198.833 C 316.133 198.833,316.465 199.208,316.917 199.667 M249.240 199.708 L 248.750 200.250 249.292 199.760 C 249.797 199.304,249.910 199.167,249.781 199.167 C 249.752 199.167,249.509 199.410,249.240 199.708 M214.075 203.708 L 213.417 204.417 214.125 203.758 C 214.784 203.145,214.910 203.000,214.784 203.000 C 214.757 203.000,214.438 203.319,214.075 203.708 M194.209 207.083 C 194.211 207.450,194.245 207.580,194.285 207.373 C 194.324 207.166,194.323 206.866,194.281 206.706 C 194.239 206.547,194.207 206.717,194.209 207.083 M360.000 207.250 C 359.595 207.662,359.301 208.000,359.347 208.000 C 359.393 208.000,359.762 207.662,360.167 207.250 C 360.572 206.838,360.865 206.500,360.819 206.500 C 360.774 206.500,360.405 206.838,360.000 207.250 M246.045 209.500 C 246.045 209.912,246.078 210.081,246.118 209.875 C 246.157 209.669,246.157 209.331,246.118 209.125 C 246.078 208.919,246.045 209.088,246.045 209.500 M138.158 209.625 L 137.583 210.250 138.208 209.676 C 138.790 209.141,138.910 209.000,138.783 209.000 C 138.755 209.000,138.474 209.281,138.158 209.625 M194.413 224.917 C 194.413 232.708,194.433 235.871,194.458 231.946 C 194.483 228.020,194.483 221.645,194.458 217.779 C 194.433 213.913,194.413 217.125,194.413 224.917 M228.400 213.417 C 228.400 214.792,228.426 215.332,228.457 214.617 C 228.489 213.903,228.488 212.778,228.457 212.117 C 228.425 211.457,228.400 212.042,228.400 213.417 M285.542 211.917 C 285.544 212.283,285.578 212.414,285.618 212.206 C 285.658 211.999,285.656 211.699,285.615 211.540 C 285.573 211.380,285.540 211.550,285.542 211.917 M259.050 212.333 C 259.050 212.838,259.081 213.044,259.119 212.792 C 259.158 212.540,259.158 212.127,259.119 211.875 C 259.081 211.623,259.050 211.829,259.050 212.333 M303.212 213.833 C 303.212 214.246,303.245 214.415,303.284 214.208 C 303.324 214.002,303.324 213.665,303.284 213.458 C 303.245 213.252,303.212 213.421,303.212 213.833 M275.728 215.250 C 275.728 216.167,275.756 216.520,275.790 216.036 C 275.824 215.552,275.823 214.802,275.789 214.369 C 275.755 213.937,275.727 214.333,275.728 215.250 M285.552 215.417 C 285.553 215.967,285.584 216.172,285.621 215.872 C 285.658 215.572,285.657 215.122,285.619 214.872 C 285.581 214.622,285.551 214.867,285.552 215.417 M246.056 216.500 C 246.056 217.188,246.085 217.469,246.121 217.125 C 246.157 216.781,246.157 216.219,246.121 215.875 C 246.085 215.531,246.056 215.813,246.056 216.500 M94.127 226.951 C 94.334 226.991,94.634 226.990,94.794 226.948 C 94.953 226.906,94.783 226.874,94.417 226.875 C 94.050 226.877,93.920 226.911,94.127 226.951 M251.042 227.448 C 251.202 227.490,251.465 227.490,251.625 227.448 C 251.785 227.406,251.654 227.372,251.333 227.372 C 251.012 227.372,250.881 227.406,251.042 227.448 M312.958 227.454 C 313.256 227.491,313.744 227.491,314.042 227.454 C 314.340 227.417,314.096 227.387,313.500 227.387 C 312.904 227.387,312.660 227.417,312.958 227.454 M87.960 239.451 C 88.168 239.491,88.468 239.490,88.627 239.448 C 88.786 239.406,88.617 239.374,88.250 239.375 C 87.883 239.377,87.753 239.411,87.960 239.451 M246.711 239.620 C 246.964 239.658,247.339 239.657,247.544 239.617 C 247.749 239.578,247.542 239.546,247.083 239.548 C 246.625 239.549,246.457 239.581,246.711 239.620 M249.458 239.618 C 249.665 239.657,250.002 239.657,250.208 239.618 C 250.415 239.578,250.246 239.545,249.833 239.545 C 249.421 239.545,249.252 239.578,249.458 239.618 M307.877 239.953 C 308.131 239.991,308.506 239.990,308.711 239.951 C 308.916 239.911,308.708 239.880,308.250 239.881 C 307.792 239.882,307.624 239.915,307.877 239.953 M310.711 239.953 C 310.964 239.991,311.339 239.990,311.544 239.951 C 311.749 239.911,311.542 239.880,311.083 239.881 C 310.625 239.882,310.457 239.915,310.711 239.953 " stroke="none" fill="#246c92" fill-rule="evenodd"></path><path id="path4" d="M92.388 170.083 C 92.389 170.725,92.419 170.967,92.455 170.621 C 92.491 170.275,92.490 169.750,92.454 169.455 C 92.417 169.159,92.387 169.442,92.388 170.083 M47.637 180.458 C 51.517 180.483,57.817 180.483,61.637 180.458 C 65.458 180.433,62.283 180.413,54.583 180.413 C 46.883 180.413,43.758 180.433,47.637 180.458 M178.041 209.707 L 178.000 238.997 169.292 239.042 L 160.583 239.086 169.297 239.127 C 176.144 239.158,178.027 239.122,178.090 238.958 C 178.133 238.844,178.149 225.625,178.126 209.583 L 178.082 180.417 178.041 209.707 M78.958 186.125 C 81.273 186.151,85.060 186.151,87.375 186.125 C 89.690 186.099,87.796 186.077,83.167 186.077 C 78.537 186.077,76.644 186.099,78.958 186.125 M210.324 189.625 L 209.750 190.250 210.375 189.676 C 210.719 189.360,211.000 189.078,211.000 189.051 C 211.000 188.923,210.859 189.043,210.324 189.625 M374.750 189.667 C 375.108 190.033,375.438 190.333,375.484 190.333 C 375.530 190.333,375.275 190.033,374.917 189.667 C 374.559 189.300,374.228 189.000,374.182 189.000 C 374.137 189.000,374.392 189.300,374.750 189.667 M325.577 193.542 L 324.750 194.417 325.625 193.590 C 326.106 193.135,326.500 192.741,326.500 192.715 C 326.500 192.590,326.346 192.729,325.577 193.542 M44.750 196.622 C 55.567 196.737,64.128 196.738,64.058 196.625 C 64.015 196.556,58.716 196.517,52.282 196.539 C 45.848 196.560,42.458 196.597,44.750 196.622 M320.994 198.292 L 320.083 199.250 321.042 198.339 C 321.569 197.838,322.000 197.407,322.000 197.381 C 322.000 197.257,321.841 197.401,320.994 198.292 M311.042 197.615 C 311.202 197.657,311.465 197.657,311.625 197.615 C 311.785 197.573,311.654 197.539,311.333 197.539 C 311.012 197.539,310.881 197.573,311.042 197.615 M312.460 197.618 C 312.668 197.658,312.968 197.656,313.127 197.615 C 313.286 197.573,313.117 197.540,312.750 197.542 C 312.383 197.544,312.253 197.578,312.460 197.618 M306.740 199.542 L 306.250 200.083 306.792 199.594 C 307.297 199.138,307.410 199.000,307.281 199.000 C 307.252 199.000,307.009 199.244,306.740 199.542 M352.324 199.958 L 351.750 200.583 352.375 200.009 C 352.719 199.693,353.000 199.412,353.000 199.384 C 353.000 199.257,352.859 199.377,352.324 199.958 M194.205 208.667 C 194.205 208.987,194.240 209.119,194.282 208.958 C 194.323 208.798,194.323 208.535,194.282 208.375 C 194.240 208.215,194.205 208.346,194.205 208.667 M211.041 224.957 L 211.000 238.997 202.625 239.042 L 194.250 239.086 202.630 239.127 C 209.211 239.158,211.028 239.122,211.090 238.958 C 211.134 238.844,211.150 232.487,211.125 224.833 L 211.081 210.917 211.041 224.957 M228.372 217.000 C 228.372 217.321,228.406 217.452,228.448 217.292 C 228.490 217.131,228.490 216.869,228.448 216.708 C 228.406 216.548,228.372 216.679,228.372 217.000 M246.209 218.250 C 246.211 218.617,246.245 218.747,246.285 218.540 C 246.324 218.332,246.323 218.032,246.281 217.873 C 246.239 217.714,246.207 217.883,246.209 218.250 M306.833 224.917 C 307.144 225.237,307.436 225.500,307.482 225.500 C 307.528 225.500,307.311 225.237,307.000 224.917 C 306.689 224.596,306.397 224.333,306.351 224.333 C 306.305 224.333,306.522 224.596,306.833 224.917 M235.083 234.667 C 235.535 235.125,235.942 235.500,235.987 235.500 C 236.033 235.500,235.701 235.125,235.250 234.667 C 234.799 234.208,234.392 233.833,234.346 233.833 C 234.300 233.833,234.632 234.208,235.083 234.667 M97.833 239.042 C 97.833 239.110,102.015 239.150,107.125 239.129 C 112.235 239.108,114.954 239.071,113.167 239.046 C 104.810 238.930,97.833 238.928,97.833 239.042 M363.310 239.043 C 363.379 239.113,367.707 239.150,372.926 239.126 L 382.417 239.083 372.800 239.000 C 367.511 238.954,363.240 238.974,363.310 239.043 M27.458 239.125 C 29.865 239.151,33.802 239.151,36.208 239.125 C 38.615 239.099,36.646 239.078,31.833 239.078 C 27.021 239.078,25.052 239.099,27.458 239.125 M139.970 239.125 C 142.566 239.151,146.766 239.151,149.304 239.125 C 151.841 239.099,149.717 239.078,144.583 239.078 C 139.450 239.078,137.374 239.099,139.970 239.125 M336.792 239.125 C 339.106 239.151,342.894 239.151,345.208 239.125 C 347.523 239.099,345.629 239.077,341.000 239.077 C 336.371 239.077,334.477 239.099,336.792 239.125 M86.208 239.448 C 86.369 239.490,86.631 239.490,86.792 239.448 C 86.952 239.406,86.821 239.372,86.500 239.372 C 86.179 239.372,86.048 239.406,86.208 239.448 M89.542 239.448 C 89.702 239.490,89.965 239.490,90.125 239.448 C 90.285 239.406,90.154 239.372,89.833 239.372 C 89.513 239.372,89.381 239.406,89.542 239.448 M247.961 239.787 C 248.261 239.825,248.711 239.824,248.961 239.786 C 249.212 239.748,248.967 239.717,248.417 239.718 C 247.867 239.719,247.662 239.750,247.961 239.787 " stroke="none" fill="#1c3c5b" fill-rule="evenodd"></path></g></svg>